<svg version="1.1" id="Layer_1" xmlns="http://www.w3.org/2000/svg" xmlns:xlink="http://www.w3.org/1999/xlink" x="0px" y="0px"
	 width="100%" viewBox="0 0 851 160" enable-background="new 0 0 851 160" xml:space="preserve">
<path fill="#FFFFFF" opacity="1.000000" stroke="none" 
	d="
M585.000000,161.000000 
	C390.000031,161.000000 195.500046,161.000000 1.000052,161.000000 
	C1.000035,107.666695 1.000035,54.333393 1.000017,1.000067 
	C284.666595,1.000044 568.333191,1.000044 851.999878,1.000022 
	C851.999878,54.333263 851.999878,107.666527 851.999939,160.999893 
	C763.166687,161.000000 674.333313,161.000000 585.000000,161.000000 
M152.024460,136.059189 
	C152.024460,128.313995 152.024460,120.568810 152.024460,112.021233 
	C137.388901,120.660744 123.513718,128.851395 109.638542,137.042038 
	C109.765793,137.344391 109.893044,137.646729 110.020294,137.949081 
	C123.974251,137.949081 137.928207,137.949081 152.834396,137.979874 
	C163.594772,137.969894 174.355164,137.959930 186.037201,137.999222 
	C347.487823,138.001572 508.938416,138.005402 670.389038,137.999878 
	C675.883362,137.999695 681.377625,137.905518 687.829163,137.983734 
	C734.407288,137.983734 780.985474,137.983734 827.627686,137.983734 
	C827.627686,98.090034 827.627686,58.599388 827.627686,18.999340 
	C815.769104,18.999340 804.283081,18.987347 792.797119,19.001575 
	C757.499390,19.045303 722.201721,19.099070 685.988525,19.006859 
	C519.072388,19.006859 352.156250,19.006859 184.993637,19.006859 
	C184.993637,25.945738 185.227234,32.273182 184.849960,38.563988 
	C184.738129,40.428547 183.360245,42.956253 181.794586,43.883606 
	C158.607086,57.617828 135.268402,71.096504 112.033813,84.751923 
	C109.390282,86.305580 107.423553,86.204147 104.833740,84.600449 
	C93.378258,77.506836 81.788528,70.629875 70.239967,63.686867 
	C68.741272,62.785854 67.199341,61.956753 65.039948,60.733101 
	C65.039948,86.739922 65.039948,111.872444 64.097191,137.005127 
	C56.450207,137.005127 48.803219,137.005127 41.156235,137.005127 
	C41.160812,137.268372 41.165390,137.531601 41.169964,137.794846 
	C49.270065,137.794846 57.370163,137.794846 66.337173,137.945312 
	C79.745293,137.945312 93.153404,137.945312 108.052223,137.945312 
	C105.470230,136.333740 104.171341,135.466461 102.820671,134.689148 
	C93.593849,129.379135 84.330467,124.131775 75.151169,118.741119 
	C73.854797,117.979813 72.033134,116.568817 72.008713,115.425339 
	C71.771637,104.327370 71.866249,93.222313 71.866249,81.440971 
	C73.886391,82.483307 75.484680,83.229691 77.007767,84.106659 
	C86.232719,89.418297 95.515594,94.636322 104.607727,100.167351 
	C107.294823,101.801987 109.111687,101.604118 111.709221,100.001434 
	C134.367584,86.021255 157.125565,72.202499 179.863174,58.350910 
	C181.319946,57.463451 182.853210,56.701553 184.829819,55.618931 
	C184.829819,83.340202 184.829819,110.162231 183.914841,136.994476 
	C173.332703,136.991196 162.750549,136.987915 152.024460,136.059189 
M31.999640,73.500000 
	C31.999640,55.411537 31.999640,37.323078 31.999640,19.352489 
	C27.627792,19.352489 23.900644,19.352489 20.368423,19.352489 
	C20.368423,59.088852 20.368423,98.472237 20.368423,137.630768 
	C26.244095,137.630768 31.746410,137.630768 37.248726,137.630768 
	C30.756590,135.956436 31.992508,130.931061 31.995266,126.476974 
	C32.005997,109.151321 31.999640,91.825661 31.999640,73.500000 
M101.500000,18.996691 
	C89.642784,18.996691 77.785568,18.996691 64.565331,18.996691 
	C79.159790,28.622395 92.423210,37.488308 105.876762,46.055653 
	C107.181900,46.886776 109.998627,46.475903 111.545486,45.617577 
	C124.488998,38.435402 137.303345,31.020243 150.146286,23.657274 
	C152.338959,22.400200 154.482376,21.057199 157.907059,18.996691 
	C138.395584,18.996691 120.447792,18.996691 101.500000,18.996691 
z"/>
<path fill="#E42926" opacity="1.000000" stroke="none" 
	d="
M686.871948,137.855164 
	C681.377625,137.905518 675.883362,137.999695 670.389038,137.999878 
	C508.938416,138.005402 347.487823,138.001572 185.512421,137.730957 
	C184.935028,137.303207 184.882416,137.143723 184.829819,136.984253 
	C184.829819,110.162231 184.829819,83.340202 184.829819,55.618931 
	C182.853210,56.701553 181.319946,57.463451 179.863174,58.350910 
	C157.125565,72.202499 134.367584,86.021255 111.709221,100.001434 
	C109.111687,101.604118 107.294823,101.801987 104.607727,100.167351 
	C95.515594,94.636322 86.232719,89.418297 77.007767,84.106659 
	C75.484680,83.229691 73.886391,82.483307 71.866249,81.440971 
	C71.866249,93.222313 71.771637,104.327370 72.008713,115.425339 
	C72.033134,116.568817 73.854797,117.979813 75.151169,118.741119 
	C84.330467,124.131775 93.593849,129.379135 102.820671,134.689148 
	C104.171341,135.466461 105.470230,136.333740 108.052223,137.945312 
	C93.153404,137.945312 79.745293,137.945312 65.846855,137.644989 
	C65.356537,137.344666 65.039948,137.004974 65.039948,137.004974 
	C65.039948,111.872444 65.039948,86.739922 65.039948,60.733101 
	C67.199341,61.956753 68.741272,62.785854 70.239967,63.686867 
	C81.788528,70.629875 93.378258,77.506836 104.833740,84.600449 
	C107.423553,86.204147 109.390282,86.305580 112.033813,84.751923 
	C135.268402,71.096504 158.607086,57.617828 181.794586,43.883606 
	C183.360245,42.956253 184.738129,40.428547 184.849960,38.563988 
	C185.227234,32.273182 184.993637,25.945738 184.993637,19.006859 
	C352.156250,19.006859 519.072388,19.006859 686.453552,19.536713 
	C686.903015,59.329433 686.887451,98.592300 686.871948,137.855164 
M545.354492,121.907333 
	C545.245972,120.257927 544.699036,118.473640 545.153137,116.997307 
	C545.601013,115.541367 547.062256,114.397194 548.078918,113.116219 
	C549.042725,114.432220 550.528625,115.633934 550.847534,117.091103 
	C551.321594,119.256783 550.970337,121.603111 550.970337,124.060043 
	C552.675903,123.924385 553.763733,123.837852 554.557617,123.774712 
	C553.621643,119.866905 553.816467,115.117867 551.539062,112.834373 
	C549.514709,110.804543 544.749329,111.508316 541.956360,111.113380 
	C541.956360,115.972122 541.956360,119.773979 541.956360,123.972923 
	C542.758057,123.934349 544.376465,123.856483 546.471558,123.761475 
	C546.308533,123.335526 546.145447,122.909576 545.354492,121.907333 
M480.354462,121.907242 
	C480.245972,120.257812 479.698975,118.473488 480.153107,116.997131 
	C480.601013,115.541245 482.062378,114.397133 483.079132,113.116249 
	C484.042908,114.432320 485.528625,115.634140 485.847626,117.091354 
	C486.321655,119.256973 485.970428,121.603241 485.970428,124.060120 
	C487.673004,123.924637 488.762848,123.837914 489.557831,123.774651 
	C488.622406,119.869614 488.816833,115.119827 486.538818,112.834099 
	C484.515717,110.804138 479.749176,111.508324 476.956421,111.113495 
	C476.956421,115.972244 476.956421,119.774094 476.956421,123.972931 
	C477.750061,123.934738 479.372528,123.856667 481.471710,123.761429 
	C481.308563,123.335487 481.145447,122.909538 480.354462,121.907242 
M379.282867,112.554138 
	C375.581696,112.015305 371.880493,111.476479 368.898743,111.042381 
	C368.898743,115.924286 368.898743,119.731453 368.898743,123.708405 
	C369.942230,123.708405 371.760376,123.708405 373.045868,123.708405 
	C372.693176,121.301598 372.015533,119.129944 372.197235,117.032761 
	C372.313324,115.693291 373.700684,114.463974 374.518097,113.185265 
	C375.369171,114.379143 376.555450,115.466545 376.977905,116.796577 
	C377.408600,118.152542 377.014191,119.751961 377.112640,121.236053 
	C377.305389,124.142250 377.343231,124.139740 380.959473,123.214676 
	C379.036530,119.799088 378.872803,116.422447 381.946991,113.081009 
	C387.591583,115.203888 383.122467,120.537033 385.531036,123.994415 
	C386.507507,123.890251 387.652557,123.768105 387.906769,123.740990 
	C387.578857,120.934052 387.252869,118.540131 387.028412,116.136734 
	C386.607147,111.625977 384.578308,110.490540 379.282867,112.554138 
M344.175110,88.555527 
	C344.175110,86.911209 344.175110,85.266899 344.175110,83.495033 
	C342.443848,83.086517 340.954315,82.735039 339.780487,82.458054 
	C339.780487,79.269882 339.780487,76.519211 339.780487,73.893768 
	C344.991516,72.357933 348.242096,73.619499 350.323120,78.619362 
	C352.293854,83.354118 355.025909,87.785667 357.611267,92.241425 
	C358.266205,93.370224 359.591766,94.793785 360.687225,94.863945 
	C365.270477,95.157471 369.883392,94.987709 374.457825,94.987709 
	C374.457825,90.645279 374.457825,86.932854 374.457825,82.986031 
	C364.888702,84.452095 365.859375,75.636574 361.758728,71.622543 
	C371.485016,65.551346 374.361267,58.982838 372.042084,49.054470 
	C370.234894,41.318062 363.816925,36.512993 353.628052,35.853989 
	C347.324829,35.446304 340.981445,35.642269 334.655884,35.602932 
	C329.733063,35.572319 324.809906,35.596806 319.810669,35.596806 
	C319.810669,39.828270 319.810669,43.274990 319.810669,46.854870 
	C321.526947,47.266891 323.074097,47.638313 324.580963,48.000065 
	C324.580963,59.664879 324.580963,71.104538 324.580963,82.610985 
	C322.808807,82.933342 321.260010,83.215073 319.872742,83.467422 
	C319.872742,87.401695 319.872742,91.001358 319.872742,94.709244 
	C328.055878,94.709244 335.960571,94.709244 344.175140,94.709244 
	C344.175140,92.788040 344.175140,91.146751 344.175110,88.555527 
M540.754761,94.270241 
	C545.946960,94.601891 551.139160,94.933548 556.531128,95.277954 
	C556.531128,90.742043 556.531128,87.004387 556.531128,83.293259 
	C549.147400,82.665619 549.147400,82.665619 544.153809,71.218117 
	C552.571777,67.136101 555.649109,60.278137 554.411926,51.152740 
	C553.266418,42.703907 548.035034,37.302376 540.166443,36.708614 
	C527.507690,35.753384 514.724060,36.452229 501.927826,36.452229 
	C501.927826,39.890682 501.927826,43.464962 501.927826,46.965530 
	C503.691132,47.338032 505.123138,47.640556 506.604950,47.953590 
	C506.604950,59.597729 506.604950,71.038589 506.604950,82.611076 
	C504.860962,82.917007 503.305817,83.189804 501.842682,83.446465 
	C501.842682,87.343170 501.842682,90.950485 501.842682,94.728485 
	C509.999084,94.728485 517.908203,94.728485 525.995239,94.728485 
	C525.995239,90.849854 525.995239,87.239418 525.995239,83.451920 
	C524.446655,83.086998 522.956360,82.735809 521.781250,82.458900 
	C521.781250,79.276833 521.781250,76.521217 521.781250,73.930832 
	C527.031128,72.287041 530.206909,73.671844 532.329163,78.624374 
	C534.548096,83.802399 537.591309,88.627159 540.754761,94.270241 
M565.250488,48.163662 
	C565.441040,55.614216 565.713501,63.063763 565.805054,70.515541 
	C565.994568,85.950066 573.087952,93.935417 588.318970,95.699287 
	C606.369446,97.789673 617.628601,87.936409 617.811523,69.835365 
	C617.878845,63.171951 617.818787,56.507305 617.855591,49.843441 
	C617.859009,49.220482 618.141907,48.599072 618.272217,48.069439 
	C619.898254,47.840446 621.328125,47.639076 622.695679,47.446484 
	C622.695679,43.375828 622.695679,39.617920 622.695679,35.887558 
	C614.294861,35.887558 606.201538,35.887558 597.899231,35.887558 
	C597.899231,39.908360 597.899231,43.631931 597.899231,47.511852 
	C599.588074,47.747372 601.011047,47.945824 602.214844,48.113697 
	C602.214844,57.016552 602.656128,65.661873 602.065002,74.236023 
	C601.647339,80.294151 597.813904,82.971687 591.903748,82.988319 
	C585.910034,83.005188 581.615540,79.935455 581.254700,74.009987 
	C580.732056,65.426758 581.120850,56.788036 581.120850,48.026527 
	C582.759155,47.872589 584.184021,47.738701 585.751587,47.591404 
	C585.751587,43.528175 585.751587,39.777111 585.751587,35.993324 
	C577.293457,35.993324 569.089600,35.993324 560.594543,35.993324 
	C560.594543,39.039906 560.773926,41.703823 560.547546,44.332806 
	C560.285645,47.374805 561.778198,48.127239 565.250488,48.163662 
M378.595062,90.490555 
	C378.702728,91.906067 378.810394,93.321571 378.920715,94.772507 
	C387.069977,94.772507 394.820435,94.772507 402.783447,94.772507 
	C402.783447,90.793816 402.783447,87.040535 402.783447,83.317146 
	C401.408356,83.056252 400.222351,82.831230 397.527924,82.320015 
	C399.763428,80.087166 401.095642,77.564468 402.687775,77.388092 
	C407.618561,76.841881 412.690582,76.826500 417.614502,77.402496 
	C419.151611,77.582306 420.392426,80.295242 422.269165,82.413216 
	C419.583801,82.949455 418.358917,83.194046 417.389771,83.387573 
	C417.389771,87.450851 417.389771,91.172516 417.389771,94.662086 
	C425.693390,94.662086 433.605804,94.662086 441.438599,94.662086 
	C441.438599,90.614906 441.438599,86.913773 441.438599,82.901917 
	C437.111816,83.935753 435.695740,81.898170 434.551910,78.331261 
	C431.410095,68.533768 427.774048,58.894390 424.312592,49.199932 
	C422.752838,44.831680 422.342834,38.723370 419.230774,36.599586 
	C415.881104,34.313656 409.953918,35.999897 405.194580,35.522015 
	C401.442902,35.145309 400.045410,36.795158 398.924744,40.108490 
	C394.089661,54.403660 388.981384,68.606438 384.003998,82.753441 
	C382.097260,82.959908 380.500000,83.132858 378.594696,83.339165 
	C378.594696,85.578468 378.594696,87.547318 378.595062,90.490555 
M253.716736,53.126556 
	C253.971985,48.097832 257.623352,47.423935 261.420288,47.468807 
	C261.420288,43.322407 261.420288,39.610069 261.420288,35.927120 
	C252.451721,35.927120 243.889221,35.927120 235.304108,35.927120 
	C235.304108,40.013729 235.304108,43.758812 235.304108,47.442951 
	C236.826050,47.772373 238.045410,48.036297 239.641769,48.381824 
	C236.259155,58.532497 232.973312,68.392769 229.687469,78.253036 
	C229.333954,78.290070 228.980438,78.327103 228.626938,78.364136 
	C225.293579,68.399742 221.960220,58.435349 218.613068,48.429707 
	C220.398727,47.923809 221.742462,47.543114 222.888000,47.218571 
	C222.888000,43.224083 222.888000,39.617912 222.888000,35.958157 
	C214.048813,35.958157 205.504410,35.958157 196.973236,35.958157 
	C196.973236,40.052692 196.973236,43.775105 196.973236,47.554462 
	C199.126404,47.760124 200.912933,47.930767 202.788406,48.109905 
	C208.285080,63.740265 213.738541,79.247757 219.217453,94.827591 
	C225.849548,94.827591 232.302963,94.827591 238.964325,94.827591 
	C243.790863,81.110352 248.586639,67.480515 253.716736,53.126556 
M314.994019,38.609318 
	C315.465698,35.548820 313.514465,35.566994 311.334351,35.578636 
	C301.672424,35.630234 292.010101,35.600494 282.347900,35.600292 
	C276.912079,35.600174 271.476288,35.600269 265.945190,35.600269 
	C265.945190,39.979546 265.945190,43.700336 265.945190,47.481564 
	C267.682251,47.742294 269.093750,47.954151 270.580444,48.177299 
	C270.580444,59.736675 270.580444,70.993279 270.580444,82.379814 
	C268.831696,82.738625 267.292114,83.054520 265.815430,83.357506 
	C265.815430,87.284515 265.815430,90.898361 265.815430,94.705879 
	C282.250519,94.705879 298.469574,94.705879 314.722565,94.705879 
	C314.722565,87.998230 314.722565,81.582764 314.722565,75.154831 
	C311.043274,75.154831 307.643921,75.154831 304.276093,75.154831 
	C303.953430,77.875618 303.669586,80.269348 303.398315,82.556740 
	C297.168091,82.556740 291.568298,82.556740 285.798615,82.556740 
	C285.798615,78.256813 285.798615,74.232773 285.798615,69.843925 
	C291.144928,69.843925 296.095551,69.843925 301.061249,69.843925 
	C301.061249,66.748390 301.061249,64.030281 301.061249,60.951485 
	C295.792664,60.951485 290.850891,60.951485 285.659973,60.951485 
	C285.659973,56.491970 285.659973,52.409294 285.659973,48.072685 
	C291.655426,48.072685 297.397797,48.072685 303.417786,48.072685 
	C303.741425,50.681297 304.038422,53.075062 304.332153,55.442486 
	C308.032440,55.442486 311.416046,55.442486 314.995361,55.442486 
	C314.995361,49.912693 314.995361,44.754177 314.994019,38.609318 
M653.500000,94.997665 
	C660.926575,94.997665 668.353088,94.997665 675.760498,94.997665 
	C675.760498,87.900024 675.760498,81.457710 675.760498,75.052208 
	C667.805054,74.001091 667.805054,74.001091 664.186401,82.583405 
	C658.305237,82.583405 652.402344,82.583405 645.845154,82.583405 
	C647.082764,81.002327 647.908020,79.841316 648.840393,78.773895 
	C656.066223,70.501732 662.920349,61.853531 670.686646,54.122429 
	C676.134033,48.699680 676.793640,42.856934 675.591614,35.978798 
	C659.664734,35.978798 643.802246,35.978798 627.877197,35.978798 
	C627.877197,42.773262 627.877197,49.182858 627.877197,55.793087 
	C630.935425,55.793087 633.715698,55.793087 636.787720,55.793087 
	C637.215698,54.065666 637.472900,52.262604 638.136475,50.624138 
	C638.562439,49.572533 639.554932,48.001457 640.348328,47.968063 
	C645.864746,47.735920 651.395630,47.845520 657.218689,47.845520 
	C656.781311,48.962963 656.736389,49.319397 656.540283,49.543747 
	C648.761780,58.444206 641.369141,67.731339 633.038635,76.082756 
	C627.475159,81.660301 626.868591,87.642273 628.048950,94.997665 
	C636.237305,94.997665 644.368652,94.997665 653.500000,94.997665 
M481.106140,59.168716 
	C481.831512,60.046852 482.509857,61.631924 483.290253,61.683857 
	C487.201630,61.944149 491.139740,61.803112 495.407593,61.803112 
	C495.407593,54.648426 495.248169,48.165451 495.475830,41.696102 
	C495.587128,38.533886 494.458771,37.053410 491.385956,36.815269 
	C483.793060,36.226818 476.165100,34.799911 468.620605,35.160542 
	C455.198120,35.802147 445.619995,44.899811 443.196198,57.884911 
	C440.371948,73.015205 445.745361,86.485909 457.515991,92.105400 
	C469.539551,97.845619 481.734161,96.890518 493.594025,91.255844 
	C494.671967,90.743721 495.829193,88.736732 495.671356,87.601677 
	C495.224762,84.389961 494.113678,81.270638 493.363007,78.481445 
	C488.321045,79.966965 483.827789,81.786224 479.160889,82.565735 
	C468.477386,84.350182 459.911896,78.912056 458.105438,69.738632 
	C455.149414,54.727242 465.060150,45.104404 480.429962,48.441685 
	C480.620331,51.650806 480.816284,54.953857 481.106140,59.168716 
M324.166992,107.154068 
	C321.221436,107.154068 318.275848,107.154068 315.101257,107.154068 
	C317.874146,112.987602 317.802124,118.339577 315.425568,123.725815 
	C319.693695,123.725815 323.946136,123.725815 328.520721,123.725815 
	C328.407715,122.035561 328.315826,120.661293 328.281860,120.153610 
	C325.355042,120.959358 322.619385,121.712471 319.166321,122.663086 
	C319.313080,119.916519 319.394989,118.383926 319.470642,116.968391 
	C321.494781,116.588501 323.023071,116.301666 324.551361,116.014832 
	C324.549164,115.766144 324.546936,115.517456 324.544708,115.268768 
	C322.884949,114.972122 321.225220,114.675484 319.210358,114.315376 
	C319.308411,112.582405 319.395966,111.035370 319.541779,108.458191 
	C322.865814,109.473907 325.496643,110.277809 328.282562,111.129105 
	C328.826324,109.016922 329.074310,106.727295 324.166992,107.154068 
M423.915833,107.376770 
	C422.714386,107.094398 421.512970,106.812027 420.485016,106.570435 
	C421.076355,108.684509 421.496552,110.186813 422.016998,112.047417 
	C420.017670,111.662498 418.714661,111.141380 417.448547,111.219292 
	C413.862976,111.439972 412.136658,113.638641 411.995056,117.113960 
	C411.851257,120.643852 412.952911,123.536194 416.906830,123.958549 
	C419.859406,124.273949 422.872742,124.020767 424.953247,124.020767 
	C424.597717,121.031349 424.190155,118.627190 424.056763,116.207909 
	C423.910431,113.552887 424.016815,110.883934 423.915833,107.376770 
M492.562775,114.418709 
	C490.934814,124.174667 493.763397,124.404350 504.894836,123.659836 
	C504.471008,119.606628 504.046722,115.549248 503.533264,110.638847 
	C499.941406,111.679718 496.439819,112.694420 492.562775,114.418709 
M466.032776,118.303574 
	C466.032776,116.014618 466.032776,113.725655 466.032776,111.690376 
	C463.847260,111.494621 462.139252,111.291481 460.425262,111.198372 
	C456.625244,110.991936 454.393372,112.859207 454.028107,116.592667 
	C453.672913,120.223450 454.604675,123.431557 458.847107,123.946724 
	C461.775330,124.302307 464.781647,124.015007 467.741791,124.015007 
	C467.034241,122.016167 466.533783,120.602386 466.032776,118.303574 
M354.089874,111.488358 
	C352.680328,111.377853 351.269501,111.160484 349.861511,111.177773 
	C346.279633,111.221771 344.321655,113.198624 344.011322,116.669930 
	C343.704163,120.105217 344.552002,123.264626 348.447327,123.875572 
	C351.479675,124.351173 354.646301,123.970734 357.406799,123.970734 
	C356.846527,121.564011 356.388031,119.826347 356.045746,118.066086 
	C355.605347,115.801079 355.258057,113.517975 354.089874,111.488358 
M400.212799,123.847290 
	C401.397339,123.847290 402.581909,123.847290 402.673828,123.847290 
	C402.324249,119.345757 402.013306,115.341820 401.727722,111.664268 
	C399.961853,111.554283 398.559479,111.552155 397.182098,111.365425 
	C392.780487,110.768669 390.128723,112.922188 389.972412,117.298164 
	C389.774933,122.827873 392.778870,124.760780 400.212799,123.847290 
M427.441315,120.699638 
	C429.922913,124.653763 433.112762,124.778015 437.490967,122.872002 
	C434.414917,121.930931 432.114349,121.227112 429.813812,120.523293 
	C429.946503,120.054626 430.079224,119.585960 430.211914,119.117287 
	C433.089844,118.948448 435.967773,118.779602 438.828552,118.611763 
	C438.553833,112.339684 434.835114,109.581650 430.275452,111.843040 
	C426.765350,113.583878 426.670898,116.653351 427.441315,120.699638 
M535.032593,123.874580 
	C536.157654,122.947067 538.184448,122.066231 538.235413,121.083122 
	C538.377319,118.341263 538.519653,114.944710 537.065796,112.999405 
	C536.054871,111.646736 531.651062,111.201241 530.132996,112.279381 
	C528.343262,113.550537 527.119629,116.968658 527.290771,119.337410 
	C527.553284,122.972458 530.564453,124.433144 535.032593,123.874580 
M509.993042,120.016922 
	C510.616882,117.899734 511.240753,115.782547 511.864655,113.665359 
	C513.732910,114.418922 515.601135,115.172485 517.794128,116.057068 
	C517.841125,115.230614 517.926208,113.732483 518.005127,112.343330 
	C512.265747,110.476578 508.635864,111.332680 507.412689,114.919456 
	C506.235931,118.370239 506.651917,121.762115 510.307556,123.458763 
	C513.204163,124.803131 516.062500,124.336761 518.277893,121.740883 
	C515.227417,121.344559 512.839844,121.034363 509.993042,120.016922 
M449.624420,106.543968 
	C448.849213,106.623878 448.074036,106.703796 447.472046,106.765862 
	C449.567474,112.583824 449.472748,118.144501 447.414154,123.682739 
	C449.118744,123.682739 450.829895,123.682739 452.077148,123.682739 
	C451.686035,121.599564 451.190521,119.811035 451.042450,117.994194 
	C450.737000,114.245567 450.616852,110.481827 449.624420,106.543968 
M361.808960,111.013878 
	C361.724335,115.222519 361.639709,119.431160 361.552673,123.760689 
	C362.032318,123.760689 363.793915,123.760689 365.214783,123.760689 
	C364.780670,121.744812 364.173096,119.968491 364.059906,118.161209 
	C363.873993,115.192589 364.255890,112.172493 363.883270,109.239540 
	C363.739838,108.110268 362.187653,107.159966 361.277344,106.128113 
	C360.971130,106.425110 360.664886,106.722107 360.358673,107.019104 
	C360.841003,108.067444 361.323364,109.115776 361.808960,111.013878 
M335.009552,116.311172 
	C335.009521,106.799644 335.009521,106.799644 331.982666,106.883179 
	C331.982666,112.479919 331.982666,118.055153 331.982666,123.769241 
	C333.002899,123.769241 334.762543,123.769241 335.986816,123.769241 
	C335.641785,121.460976 335.325684,119.346062 335.009552,116.311172 
M524.026184,118.218384 
	C524.026184,115.948906 524.026184,113.679428 524.026184,111.008728 
	C522.316956,111.291840 521.177429,111.480576 520.953613,111.517654 
	C520.953613,116.003983 520.953613,119.880989 520.953613,123.711975 
	C522.151306,123.711975 523.867004,123.711975 525.300293,123.711975 
	C524.833740,122.017815 524.430115,120.552277 524.026184,118.218384 
z"/>
<path fill="#951A1B" opacity="1.000000" stroke="none" 
	d="
M687.350525,137.919449 
	C686.887451,98.592300 686.903015,59.329433 686.911255,19.607752 
	C722.201721,19.099070 757.499390,19.045303 792.797119,19.001575 
	C804.283081,18.987347 815.769104,18.999340 827.627686,18.999340 
	C827.627686,58.599388 827.627686,98.090034 827.627686,137.983734 
	C780.985474,137.983734 734.407288,137.983734 687.350525,137.919449 
M741.098145,100.974030 
	C744.384521,97.822456 743.880798,96.774445 738.177246,95.050224 
	C738.177246,84.000641 738.177246,72.927254 738.177246,61.558395 
	C741.739258,61.422256 744.377380,60.547153 742.420898,56.308064 
	C737.052795,56.308064 731.809143,56.308064 726.198181,56.308064 
	C726.276794,58.039883 726.340515,59.443573 726.399902,60.751541 
	C732.224182,61.862732 733.354492,65.787064 731.043274,75.577347 
	C723.507690,75.577347 715.972107,75.577347 708.137024,75.577347 
	C708.137024,71.517540 707.992371,67.864777 708.230774,64.237160 
	C708.296814,63.231636 709.420044,61.546150 710.195496,61.463749 
	C713.963196,61.063396 713.197693,58.826931 712.720398,56.258110 
	C707.495667,56.258110 702.415039,56.258110 697.299316,56.258110 
	C696.519409,58.934528 696.081238,61.041531 699.736511,61.427124 
	C700.504761,61.508175 701.731262,62.876034 701.741272,63.663685 
	C701.875366,74.254265 701.831116,84.847099 701.831116,95.620705 
	C697.999817,95.676819 695.581604,96.508430 697.381104,100.724594 
	C702.465942,100.724594 707.543945,100.724594 712.484314,100.724594 
	C714.938171,95.729462 710.543396,96.161766 708.404419,95.188248 
	C708.404419,90.454582 708.404419,86.017555 708.404419,81.349854 
	C716.212341,81.349854 723.740723,81.349854 731.216492,81.349854 
	C732.954773,92.807594 732.344055,94.694298 726.381592,96.813507 
	C725.586487,99.716957 726.329956,101.235085 729.695129,101.045586 
	C733.178772,100.849426 736.681946,100.999954 741.098145,100.974030 
M794.969666,70.182426 
	C794.297241,69.125351 793.675476,67.195251 792.944275,67.152870 
	C788.185730,66.877083 783.403503,67.011238 778.629028,67.011238 
	C778.323364,67.509972 778.017700,68.008713 777.712036,68.507446 
	C778.813721,69.632118 779.862488,70.815582 781.030701,71.866364 
	C782.443970,73.137627 784.653381,74.001503 785.312439,75.553673 
	C788.757751,83.667549 791.872620,91.924339 794.966614,100.182289 
	C795.495117,101.592880 796.052979,103.745880 795.380493,104.677361 
	C794.358276,106.093193 792.368164,107.046608 790.602234,107.602318 
	C789.503174,107.948181 788.059387,107.198685 786.451294,106.876961 
	C785.966309,108.386169 785.535828,109.725777 785.109680,111.051941 
	C794.066345,114.291260 798.156372,112.558067 801.422791,104.186447 
	C805.112244,94.730934 808.543762,85.172592 812.383057,75.779800 
	C813.039612,74.173637 815.034302,72.338715 816.658752,72.061363 
	C820.323364,71.435654 819.880676,69.666489 819.155029,67.233536 
	C813.736755,67.233536 808.624878,67.233536 801.702881,67.233536 
	C803.725830,69.935890 804.979004,71.609978 806.846069,74.104187 
	C804.680176,79.972198 802.084717,87.003883 799.489319,94.035568 
	C799.085266,94.008965 798.681213,93.982368 798.277161,93.955772 
	C795.747253,86.872467 793.217346,79.789162 790.700745,72.743164 
	C792.441406,72.001709 793.617249,71.500824 794.969666,70.182426 
M765.897522,67.048889 
	C752.153137,65.220680 746.705627,73.257057 745.453125,81.510773 
	C744.097900,90.441254 749.774292,99.374275 757.921326,100.921822 
	C768.311768,102.895515 776.146240,97.758766 778.222229,87.611351 
	C780.143188,78.221901 776.097107,71.035370 765.897522,67.048889 
z"/>
<path fill="#E42623" opacity="1.000000" stroke="none" 
	d="
M31.999640,74.000000 
	C31.999640,91.825661 32.005997,109.151321 31.995266,126.476974 
	C31.992508,130.931061 30.756590,135.956436 37.248726,137.630768 
	C31.746410,137.630768 26.244095,137.630768 20.368423,137.630768 
	C20.368423,98.472237 20.368423,59.088852 20.368423,19.352489 
	C23.900644,19.352489 27.627792,19.352489 31.999640,19.352489 
	C31.999640,37.323078 31.999640,55.411537 31.999640,74.000000 
z"/>
<path fill="#E42825" opacity="1.000000" stroke="none" 
	d="
M102.000000,18.996691 
	C120.447792,18.996691 138.395584,18.996691 157.907059,18.996691 
	C154.482376,21.057199 152.338959,22.400200 150.146286,23.657274 
	C137.303345,31.020243 124.488998,38.435402 111.545486,45.617577 
	C109.998627,46.475903 107.181900,46.886776 105.876762,46.055653 
	C92.423210,37.488308 79.159790,28.622395 64.565331,18.996691 
	C77.785568,18.996691 89.642784,18.996691 102.000000,18.996691 
z"/>
<path fill="#E42825" opacity="1.000000" stroke="none" 
	d="
M151.882172,137.949081 
	C137.928207,137.949081 123.974251,137.949081 110.020294,137.949081 
	C109.893044,137.646729 109.765793,137.344391 109.638542,137.042038 
	C123.513718,128.851395 137.388901,120.660744 152.024460,112.021233 
	C152.024460,120.568810 152.024460,128.313995 152.017105,136.760712 
	C151.967209,137.624542 151.924683,137.786819 151.882172,137.949081 
z"/>
<path fill="#FDEEEE" opacity="1.000000" stroke="none" 
	d="
M152.358276,137.964478 
	C151.924683,137.786819 151.967209,137.624542 152.089081,137.223450 
	C162.750549,136.987915 173.332703,136.991196 184.372330,136.989365 
	C184.882416,137.143723 184.935028,137.303207 185.051590,137.706314 
	C174.355164,137.959930 163.594772,137.969894 152.358276,137.964478 
z"/>
<path fill="#FDEAEA" opacity="1.000000" stroke="none" 
	d="
M64.568573,137.005051 
	C65.039948,137.004974 65.356537,137.344666 65.413399,137.569763 
	C57.370163,137.794846 49.270065,137.794846 41.169964,137.794846 
	C41.165390,137.531601 41.160812,137.268372 41.156235,137.005127 
	C48.803219,137.005127 56.450207,137.005127 64.568573,137.005051 
z"/>
<path fill="#FFFDFD" opacity="1.000000" stroke="none" 
	d="
M344.175110,89.030487 
	C344.175140,91.146751 344.175140,92.788040 344.175140,94.709244 
	C335.960571,94.709244 328.055878,94.709244 319.872742,94.709244 
	C319.872742,91.001358 319.872742,87.401695 319.872742,83.467422 
	C321.260010,83.215073 322.808807,82.933342 324.580963,82.610985 
	C324.580963,71.104538 324.580963,59.664879 324.580963,48.000065 
	C323.074097,47.638313 321.526947,47.266891 319.810669,46.854870 
	C319.810669,43.274990 319.810669,39.828270 319.810669,35.596806 
	C324.809906,35.596806 329.733063,35.572319 334.655884,35.602932 
	C340.981445,35.642269 347.324829,35.446304 353.628052,35.853989 
	C363.816925,36.512993 370.234894,41.318062 372.042084,49.054470 
	C374.361267,58.982838 371.485016,65.551346 361.758728,71.622543 
	C365.859375,75.636574 364.888702,84.452095 374.457825,82.986031 
	C374.457825,86.932854 374.457825,90.645279 374.457825,94.987709 
	C369.883392,94.987709 365.270477,95.157471 360.687225,94.863945 
	C359.591766,94.793785 358.266205,93.370224 357.611267,92.241425 
	C355.025909,87.785667 352.293854,83.354118 350.323120,78.619362 
	C348.242096,73.619499 344.991516,72.357933 339.780487,73.893768 
	C339.780487,76.519211 339.780487,79.269882 339.780487,82.458054 
	C340.954315,82.735039 342.443848,83.086517 344.175110,83.495033 
	C344.175110,85.266899 344.175110,86.911209 344.175110,89.030487 
M339.372955,59.251789 
	C340.141266,60.564335 340.800415,62.912968 341.697052,63.007431 
	C345.295776,63.386559 349.010773,63.391846 352.601624,62.918919 
	C356.518555,62.403046 358.657837,59.736908 358.829742,55.715458 
	C359.000519,51.719170 357.245331,48.703320 353.287567,48.029171 
	C348.850861,47.273445 344.282410,47.291180 339.372864,46.944218 
	C339.372864,51.392891 339.372864,54.854553 339.372955,59.251789 
z"/>
<path fill="#FFFDFD" opacity="1.000000" stroke="none" 
	d="
M540.514526,93.938293 
	C537.591309,88.627159 534.548096,83.802399 532.329163,78.624374 
	C530.206909,73.671844 527.031128,72.287041 521.781250,73.930832 
	C521.781250,76.521217 521.781250,79.276833 521.781250,82.458900 
	C522.956360,82.735809 524.446655,83.086998 525.995239,83.451920 
	C525.995239,87.239418 525.995239,90.849854 525.995239,94.728485 
	C517.908203,94.728485 509.999084,94.728485 501.842682,94.728485 
	C501.842682,90.950485 501.842682,87.343170 501.842682,83.446465 
	C503.305817,83.189804 504.860962,82.917007 506.604950,82.611076 
	C506.604950,71.038589 506.604950,59.597729 506.604950,47.953590 
	C505.123138,47.640556 503.691132,47.338032 501.927826,46.965530 
	C501.927826,43.464962 501.927826,39.890682 501.927826,36.452229 
	C514.724060,36.452229 527.507690,35.753384 540.166443,36.708614 
	C548.035034,37.302376 553.266418,42.703907 554.411926,51.152740 
	C555.649109,60.278137 552.571777,67.136101 544.153809,71.218117 
	C549.147400,82.665619 549.147400,82.665619 556.531128,83.293259 
	C556.531128,87.004387 556.531128,90.742043 556.531128,95.277954 
	C551.139160,94.933548 545.946960,94.601891 540.514526,93.938293 
M532.175964,63.200294 
	C538.313293,62.500919 540.904053,60.101704 540.841919,55.174999 
	C540.783203,50.521751 538.125061,47.930744 532.329163,47.429138 
	C528.908813,47.133121 525.441895,47.375050 521.685608,47.375050 
	C521.685608,52.624050 521.685608,57.672077 521.685608,63.201927 
	C525.025513,63.201927 528.141418,63.201927 532.175964,63.200294 
z"/>
<path fill="#FFFCFC" opacity="1.000000" stroke="none" 
	d="
M564.814453,48.018738 
	C561.778198,48.127239 560.285645,47.374805 560.547546,44.332806 
	C560.773926,41.703823 560.594543,39.039906 560.594543,35.993324 
	C569.089600,35.993324 577.293457,35.993324 585.751587,35.993324 
	C585.751587,39.777111 585.751587,43.528175 585.751587,47.591404 
	C584.184021,47.738701 582.759155,47.872589 581.120850,48.026527 
	C581.120850,56.788036 580.732056,65.426758 581.254700,74.009987 
	C581.615540,79.935455 585.910034,83.005188 591.903748,82.988319 
	C597.813904,82.971687 601.647339,80.294151 602.065002,74.236023 
	C602.656128,65.661873 602.214844,57.016552 602.214844,48.113697 
	C601.011047,47.945824 599.588074,47.747372 597.899231,47.511852 
	C597.899231,43.631931 597.899231,39.908360 597.899231,35.887558 
	C606.201538,35.887558 614.294861,35.887558 622.695679,35.887558 
	C622.695679,39.617920 622.695679,43.375828 622.695679,47.446484 
	C621.328125,47.639076 619.898254,47.840446 618.272217,48.069439 
	C618.141907,48.599072 617.859009,49.220482 617.855591,49.843441 
	C617.818787,56.507305 617.878845,63.171951 617.811523,69.835365 
	C617.628601,87.936409 606.369446,97.789673 588.318970,95.699287 
	C573.087952,93.935417 565.994568,85.950066 565.805054,70.515541 
	C565.713501,63.063763 565.441040,55.614216 564.814453,48.018738 
z"/>
<path fill="#FFFCFC" opacity="1.000000" stroke="none" 
	d="
M378.594879,90.003357 
	C378.594696,87.547318 378.594696,85.578468 378.594696,83.339165 
	C380.500000,83.132858 382.097260,82.959908 384.003998,82.753441 
	C388.981384,68.606438 394.089661,54.403660 398.924744,40.108490 
	C400.045410,36.795158 401.442902,35.145309 405.194580,35.522015 
	C409.953918,35.999897 415.881104,34.313656 419.230774,36.599586 
	C422.342834,38.723370 422.752838,44.831680 424.312592,49.199932 
	C427.774048,58.894390 431.410095,68.533768 434.551910,78.331261 
	C435.695740,81.898170 437.111816,83.935753 441.438599,82.901917 
	C441.438599,86.913773 441.438599,90.614906 441.438599,94.662086 
	C433.605804,94.662086 425.693390,94.662086 417.389771,94.662086 
	C417.389771,91.172516 417.389771,87.450851 417.389771,83.387573 
	C418.358917,83.194046 419.583801,82.949455 422.269165,82.413216 
	C420.392426,80.295242 419.151611,77.582306 417.614502,77.402496 
	C412.690582,76.826500 407.618561,76.841881 402.687775,77.388092 
	C401.095642,77.564468 399.763428,80.087166 397.527924,82.320015 
	C400.222351,82.831230 401.408356,83.056252 402.783447,83.317146 
	C402.783447,87.040535 402.783447,90.793816 402.783447,94.772507 
	C394.820435,94.772507 387.069977,94.772507 378.920715,94.772507 
	C378.810394,93.321571 378.702728,91.906067 378.594879,90.003357 
M404.093842,66.551613 
	C407.955322,67.037651 411.816803,67.523682 416.691864,68.137291 
	C414.343658,61.107395 412.428375,55.373524 410.080078,48.343327 
	C407.800995,55.105835 406.008789,60.423676 404.093842,66.551613 
z"/>
<path fill="#FFFCFC" opacity="1.000000" stroke="none" 
	d="
M253.549576,53.488617 
	C248.586639,67.480515 243.790863,81.110352 238.964325,94.827591 
	C232.302963,94.827591 225.849548,94.827591 219.217453,94.827591 
	C213.738541,79.247757 208.285080,63.740265 202.788406,48.109905 
	C200.912933,47.930767 199.126404,47.760124 196.973236,47.554462 
	C196.973236,43.775105 196.973236,40.052692 196.973236,35.958157 
	C205.504410,35.958157 214.048813,35.958157 222.888000,35.958157 
	C222.888000,39.617912 222.888000,43.224083 222.888000,47.218571 
	C221.742462,47.543114 220.398727,47.923809 218.613068,48.429707 
	C221.960220,58.435349 225.293579,68.399742 228.626938,78.364136 
	C228.980438,78.327103 229.333954,78.290070 229.687469,78.253036 
	C232.973312,68.392769 236.259155,58.532497 239.641769,48.381824 
	C238.045410,48.036297 236.826050,47.772373 235.304108,47.442951 
	C235.304108,43.758812 235.304108,40.013729 235.304108,35.927120 
	C243.889221,35.927120 252.451721,35.927120 261.420288,35.927120 
	C261.420288,39.610069 261.420288,43.322407 261.420288,47.468807 
	C257.623352,47.423935 253.971985,48.097832 253.549576,53.488617 
z"/>
<path fill="#FFFEFE" opacity="1.000000" stroke="none" 
	d="
M314.994690,39.102486 
	C314.995361,44.754177 314.995361,49.912693 314.995361,55.442486 
	C311.416046,55.442486 308.032440,55.442486 304.332153,55.442486 
	C304.038422,53.075062 303.741425,50.681297 303.417786,48.072685 
	C297.397797,48.072685 291.655426,48.072685 285.659973,48.072685 
	C285.659973,52.409294 285.659973,56.491970 285.659973,60.951485 
	C290.850891,60.951485 295.792664,60.951485 301.061249,60.951485 
	C301.061249,64.030281 301.061249,66.748390 301.061249,69.843925 
	C296.095551,69.843925 291.144928,69.843925 285.798615,69.843925 
	C285.798615,74.232773 285.798615,78.256813 285.798615,82.556740 
	C291.568298,82.556740 297.168091,82.556740 303.398315,82.556740 
	C303.669586,80.269348 303.953430,77.875618 304.276093,75.154831 
	C307.643921,75.154831 311.043274,75.154831 314.722565,75.154831 
	C314.722565,81.582764 314.722565,87.998230 314.722565,94.705879 
	C298.469574,94.705879 282.250519,94.705879 265.815430,94.705879 
	C265.815430,90.898361 265.815430,87.284515 265.815430,83.357506 
	C267.292114,83.054520 268.831696,82.738625 270.580444,82.379814 
	C270.580444,70.993279 270.580444,59.736675 270.580444,48.177299 
	C269.093750,47.954151 267.682251,47.742294 265.945190,47.481564 
	C265.945190,43.700336 265.945190,39.979546 265.945190,35.600269 
	C271.476288,35.600269 276.912079,35.600174 282.347900,35.600292 
	C292.010101,35.600494 301.672424,35.630234 311.334351,35.578636 
	C313.514465,35.566994 315.465698,35.548820 314.994690,39.102486 
z"/>
<path fill="#FFFDFD" opacity="1.000000" stroke="none" 
	d="
M653.000000,94.997665 
	C644.368652,94.997665 636.237305,94.997665 628.048950,94.997665 
	C626.868591,87.642273 627.475159,81.660301 633.038635,76.082756 
	C641.369141,67.731339 648.761780,58.444206 656.540283,49.543747 
	C656.736389,49.319397 656.781311,48.962963 657.218689,47.845520 
	C651.395630,47.845520 645.864746,47.735920 640.348328,47.968063 
	C639.554932,48.001457 638.562439,49.572533 638.136475,50.624138 
	C637.472900,52.262604 637.215698,54.065666 636.787720,55.793087 
	C633.715698,55.793087 630.935425,55.793087 627.877197,55.793087 
	C627.877197,49.182858 627.877197,42.773262 627.877197,35.978798 
	C643.802246,35.978798 659.664734,35.978798 675.591614,35.978798 
	C676.793640,42.856934 676.134033,48.699680 670.686646,54.122429 
	C662.920349,61.853531 656.066223,70.501732 648.840393,78.773895 
	C647.908020,79.841316 647.082764,81.002327 645.845154,82.583405 
	C652.402344,82.583405 658.305237,82.583405 664.186401,82.583405 
	C667.805054,74.001091 667.805054,74.001091 675.760498,75.052208 
	C675.760498,81.457710 675.760498,87.900024 675.760498,94.997665 
	C668.353088,94.997665 660.926575,94.997665 653.000000,94.997665 
z"/>
<path fill="#FFFCFC" opacity="1.000000" stroke="none" 
	d="
M481.059204,58.712811 
	C480.816284,54.953857 480.620331,51.650806 480.429962,48.441685 
	C465.060150,45.104404 455.149414,54.727242 458.105438,69.738632 
	C459.911896,78.912056 468.477386,84.350182 479.160889,82.565735 
	C483.827789,81.786224 488.321045,79.966965 493.363007,78.481445 
	C494.113678,81.270638 495.224762,84.389961 495.671356,87.601677 
	C495.829193,88.736732 494.671967,90.743721 493.594025,91.255844 
	C481.734161,96.890518 469.539551,97.845619 457.515991,92.105400 
	C445.745361,86.485909 440.371948,73.015205 443.196198,57.884911 
	C445.619995,44.899811 455.198120,35.802147 468.620605,35.160542 
	C476.165100,34.799911 483.793060,36.226818 491.385956,36.815269 
	C494.458771,37.053410 495.587128,38.533886 495.475830,41.696102 
	C495.248169,48.165451 495.407593,54.648426 495.407593,61.803112 
	C491.139740,61.803112 487.201630,61.944149 483.290253,61.683857 
	C482.509857,61.631924 481.831512,60.046852 481.059204,58.712811 
z"/>
<path fill="#FEF4F4" opacity="1.000000" stroke="none" 
	d="
M324.603577,107.154243 
	C329.074310,106.727295 328.826324,109.016922 328.282562,111.129105 
	C325.496643,110.277809 322.865814,109.473907 319.541779,108.458191 
	C319.395966,111.035370 319.308411,112.582405 319.210358,114.315376 
	C321.225220,114.675484 322.884949,114.972122 324.544708,115.268768 
	C324.546936,115.517456 324.549164,115.766144 324.551361,116.014832 
	C323.023071,116.301666 321.494781,116.588501 319.470642,116.968391 
	C319.394989,118.383926 319.313080,119.916519 319.166321,122.663086 
	C322.619385,121.712471 325.355042,120.959358 328.281860,120.153610 
	C328.315826,120.661293 328.407715,122.035561 328.520721,123.725815 
	C323.946136,123.725815 319.693695,123.725815 315.425568,123.725815 
	C317.802124,118.339577 317.874146,112.987602 315.101257,107.154068 
	C318.275848,107.154068 321.221436,107.154068 324.603577,107.154243 
z"/>
<path fill="#FDF1F1" opacity="1.000000" stroke="none" 
	d="
M423.964478,107.798904 
	C424.016815,110.883934 423.910431,113.552887 424.056763,116.207909 
	C424.190155,118.627190 424.597717,121.031349 424.953247,124.020767 
	C422.872742,124.020767 419.859406,124.273949 416.906830,123.958549 
	C412.952911,123.536194 411.851257,120.643852 411.995056,117.113960 
	C412.136658,113.638641 413.862976,111.439972 417.448547,111.219292 
	C418.714661,111.141380 420.017670,111.662498 422.016998,112.047417 
	C421.496552,110.186813 421.076355,108.684509 420.485016,106.570435 
	C421.512970,106.812027 422.714386,107.094398 423.964478,107.798904 
M414.759979,115.409370 
	C415.408539,117.539703 415.903717,119.747223 416.890045,121.707634 
	C417.020813,121.967514 420.688751,121.272301 420.915192,120.494469 
	C421.450775,118.654572 420.900757,116.498657 420.789673,114.470512 
	C418.917572,114.573456 417.045502,114.676399 414.759979,115.409370 
z"/>
<path fill="#FBE1E1" opacity="1.000000" stroke="none" 
	d="
M381.187958,113.100670 
	C378.872803,116.422447 379.036530,119.799088 380.961792,123.214722 
	C377.343231,124.139740 377.305389,124.142250 377.112640,121.236053 
	C377.014191,119.751961 377.408600,118.152542 376.977905,116.796577 
	C376.555450,115.466545 375.369171,114.379143 374.518066,113.185272 
	C373.700684,114.463974 372.313324,115.693291 372.197235,117.032761 
	C372.015533,119.129944 372.693176,121.301598 373.045868,123.708405 
	C371.760376,123.708405 369.942230,123.708405 368.898743,123.708405 
	C368.898743,119.731453 368.898743,115.924286 368.898743,111.042381 
	C371.880493,111.476479 375.581696,112.015305 379.828186,112.611015 
	C380.615784,112.867126 380.887238,113.011391 381.187958,113.100670 
z"/>
<path fill="#FDEEED" opacity="1.000000" stroke="none" 
	d="
M492.750488,114.063919 
	C496.439819,112.694420 499.941406,111.679718 503.533264,110.638847 
	C504.046722,115.549248 504.471008,119.606628 504.894836,123.659836 
	C493.763397,124.404350 490.934814,124.174667 492.750488,114.063919 
M499.847473,113.732391 
	C498.099548,114.430550 495.551270,114.679916 494.835297,115.956741 
	C494.158325,117.163986 495.026764,119.694771 495.969513,121.157349 
	C496.429260,121.870590 499.517334,122.019341 499.836609,121.483231 
	C500.823303,119.826363 501.141449,117.734306 501.506714,115.771713 
	C501.593201,115.306915 500.848511,114.687416 499.847473,113.732391 
z"/>
<path fill="#FDEEED" opacity="1.000000" stroke="none" 
	d="
M466.033051,118.746094 
	C466.533783,120.602386 467.034241,122.016167 467.741791,124.015007 
	C464.781647,124.015007 461.775330,124.302307 458.847107,123.946724 
	C454.604675,123.431557 453.672913,120.223450 454.028107,116.592667 
	C454.393372,112.859207 456.625244,110.991936 460.425262,111.198372 
	C462.139252,111.291481 463.847260,111.494621 466.032776,111.690376 
	C466.032776,113.725655 466.032776,116.014618 466.033051,118.746094 
M456.729706,119.765793 
	C458.219208,120.489319 459.708466,121.735245 461.198273,121.735825 
	C462.059570,121.736160 463.815552,119.500702 463.603760,118.670967 
	C463.110321,116.737694 461.842834,113.676277 460.580444,113.517029 
	C456.994781,113.064682 455.902008,115.751213 456.729706,119.765793 
z"/>
<path fill="#FDEEED" opacity="1.000000" stroke="none" 
	d="
M354.480286,111.365509 
	C355.258057,113.517975 355.605347,115.801079 356.045746,118.066086 
	C356.388031,119.826347 356.846527,121.564011 357.406799,123.970734 
	C354.646301,123.970734 351.479675,124.351173 348.447327,123.875572 
	C344.552002,123.264626 343.704163,120.105217 344.011322,116.669930 
	C344.321655,113.198624 346.279633,111.221771 349.861511,111.177773 
	C351.269501,111.160484 352.680328,111.377853 354.480286,111.365509 
M353.819916,117.575294 
	C352.405304,116.140907 350.990723,114.706520 349.576111,113.272125 
	C348.452728,114.732689 346.620941,116.106514 346.428162,117.681030 
	C346.271484,118.960892 347.784180,121.224449 349.078857,121.739891 
	C351.746429,122.801910 353.431763,121.185638 353.819916,117.575294 
z"/>
<path fill="#FDEEED" opacity="1.000000" stroke="none" 
	d="
M399.827148,123.619232 
	C392.778870,124.760780 389.774933,122.827873 389.972412,117.298164 
	C390.128723,112.922188 392.780487,110.768669 397.182098,111.365425 
	C398.559479,111.552155 399.961853,111.554283 401.727722,111.664268 
	C402.013306,115.341820 402.324249,119.345757 402.673828,123.847290 
	C402.581909,123.847290 401.397339,123.847290 399.827148,123.619232 
M399.735596,119.132744 
	C398.700836,117.175369 397.666077,115.217995 396.631287,113.260635 
	C395.311737,114.060959 393.022552,114.720558 392.881531,115.691910 
	C392.616791,117.516243 393.593536,119.520760 394.053986,121.450348 
	C395.864746,120.925995 397.675537,120.401649 399.735596,119.132744 
z"/>
<path fill="#FCE7E6" opacity="1.000000" stroke="none" 
	d="
M427.291565,120.319099 
	C426.670898,116.653351 426.765350,113.583878 430.275452,111.843040 
	C434.835114,109.581650 438.553833,112.339684 438.828552,118.611763 
	C435.967773,118.779602 433.089844,118.948448 430.211914,119.117287 
	C430.079224,119.585960 429.946503,120.054626 429.813812,120.523293 
	C432.114349,121.227112 434.414917,121.930931 437.490967,122.872002 
	C433.112762,124.778015 429.922913,124.653763 427.291565,120.319099 
M429.992798,115.052429 
	C432.072357,115.856880 434.151947,116.661324 436.231506,117.465775 
	C436.424561,116.942398 436.617584,116.419029 436.810608,115.895653 
	C435.384613,112.983665 433.371368,112.029343 429.992798,115.052429 
z"/>
<path fill="#FDF1F1" opacity="1.000000" stroke="none" 
	d="
M480.994995,123.778595 
	C479.372528,123.856667 477.750061,123.934738 476.956421,123.972931 
	C476.956421,119.774094 476.956421,115.972244 476.956421,111.113495 
	C479.749176,111.508324 484.515717,110.804138 486.538818,112.834099 
	C488.816833,115.119827 488.622406,119.869614 489.557831,123.774651 
	C488.762848,123.837914 487.673004,123.924637 485.970428,124.060120 
	C485.970428,121.603241 486.321655,119.256973 485.847626,117.091354 
	C485.528625,115.634140 484.042908,114.432320 483.079102,113.116241 
	C482.062378,114.397133 480.601013,115.541245 480.153107,116.997131 
	C479.698975,118.473488 480.245972,120.257812 480.670654,122.411240 
	C480.991241,123.203011 480.993958,123.490799 480.994995,123.778595 
z"/>
<path fill="#FDF1F1" opacity="1.000000" stroke="none" 
	d="
M545.994873,123.778618 
	C544.376465,123.856483 542.758057,123.934349 541.956360,123.972923 
	C541.956360,119.773979 541.956360,115.972122 541.956360,111.113380 
	C544.749329,111.508316 549.514709,110.804543 551.539062,112.834373 
	C553.816467,115.117867 553.621643,119.866905 554.557617,123.774712 
	C553.763733,123.837852 552.675903,123.924385 550.970337,124.060043 
	C550.970337,121.603111 551.321594,119.256783 550.847534,117.091103 
	C550.528625,115.633934 549.042725,114.432220 548.078918,113.116226 
	C547.062256,114.397194 545.601013,115.541367 545.153137,116.997307 
	C544.699036,118.473640 545.245972,120.257927 545.670776,122.411301 
	C545.991638,123.203033 545.994263,123.490814 545.994873,123.778618 
z"/>
<path fill="#FDECEB" opacity="1.000000" stroke="none" 
	d="
M534.634399,123.940933 
	C530.564453,124.433144 527.553284,122.972458 527.290771,119.337410 
	C527.119629,116.968658 528.343262,113.550537 530.132996,112.279381 
	C531.651062,111.201241 536.054871,111.646736 537.065796,112.999405 
	C538.519653,114.944710 538.377319,118.341263 538.235413,121.083122 
	C538.184448,122.066231 536.157654,122.947067 534.634399,123.940933 
M533.440552,113.228775 
	C532.662659,113.448914 531.299377,113.525093 531.203979,113.913071 
	C530.675110,116.063377 530.162476,118.316078 530.358032,120.468826 
	C530.400757,120.938164 533.353455,121.143120 534.965881,121.469849 
	C535.342285,119.278557 535.836426,117.095871 535.997803,114.888847 
	C536.030762,114.437408 534.815857,113.894722 533.440552,113.228775 
z"/>
<path fill="#FCE8E8" opacity="1.000000" stroke="none" 
	d="
M510.222656,120.370544 
	C512.839844,121.034363 515.227417,121.344559 518.277893,121.740883 
	C516.062500,124.336761 513.204163,124.803131 510.307556,123.458763 
	C506.651917,121.762115 506.235931,118.370239 507.412689,114.919456 
	C508.635864,111.332680 512.265747,110.476578 518.005127,112.343330 
	C517.926208,113.732483 517.841125,115.230614 517.794128,116.057068 
	C515.601135,115.172485 513.732910,114.418922 511.864624,113.665359 
	C511.240753,115.782547 510.616882,117.899734 510.222656,120.370544 
z"/>
<path fill="#FEF8F8" opacity="1.000000" stroke="none" 
	d="
M450.022461,106.634140 
	C450.616852,110.481827 450.737000,114.245567 451.042450,117.994194 
	C451.190521,119.811035 451.686035,121.599564 452.077148,123.682739 
	C450.829895,123.682739 449.118744,123.682739 447.414154,123.682739 
	C449.472748,118.144501 449.567474,112.583824 447.472046,106.765862 
	C448.074036,106.703796 448.849213,106.623878 450.022461,106.634140 
z"/>
<path fill="#FEF8F8" opacity="1.000000" stroke="none" 
	d="
M361.807343,110.588989 
	C361.323364,109.115776 360.841003,108.067444 360.358673,107.019104 
	C360.664886,106.722107 360.971130,106.425110 361.277344,106.128113 
	C362.187653,107.159966 363.739838,108.110268 363.883270,109.239540 
	C364.255890,112.172493 363.873993,115.192589 364.059906,118.161209 
	C364.173096,119.968491 364.780670,121.744812 365.214783,123.760689 
	C363.793915,123.760689 362.032318,123.760689 361.552673,123.760689 
	C361.639709,119.431160 361.724335,115.222519 361.807343,110.588989 
z"/>
<path fill="#FEF8F8" opacity="1.000000" stroke="none" 
	d="
M335.009552,116.771164 
	C335.325684,119.346062 335.641785,121.460976 335.986816,123.769241 
	C334.762543,123.769241 333.002899,123.769241 331.982666,123.769241 
	C331.982666,118.055153 331.982666,112.479919 331.982666,106.883179 
	C335.009521,106.799644 335.009521,106.799644 335.009552,116.771164 
z"/>
<path fill="#FDF1F1" opacity="1.000000" stroke="none" 
	d="
M381.567474,113.090836 
	C380.887238,113.011391 380.615784,112.867126 380.227142,112.488358 
	C384.578308,110.490540 386.607147,111.625977 387.028412,116.136734 
	C387.252869,118.540131 387.578857,120.934052 387.906769,123.740990 
	C387.652557,123.768105 386.507507,123.890251 385.531036,123.994415 
	C383.122467,120.537033 387.591583,115.203888 381.567474,113.090836 
z"/>
<path fill="#FDF1F0" opacity="1.000000" stroke="none" 
	d="
M524.026367,118.652565 
	C524.430115,120.552277 524.833740,122.017815 525.300293,123.711975 
	C523.867004,123.711975 522.151306,123.711975 520.953613,123.711975 
	C520.953613,119.880989 520.953613,116.003983 520.953613,111.517654 
	C521.177429,111.480576 522.316956,111.291840 524.026184,111.008728 
	C524.026184,113.679428 524.026184,115.948906 524.026367,118.652565 
z"/>
<path fill="#FDEFEF" opacity="1.000000" stroke="none" 
	d="
M481.233337,123.770012 
	C480.993958,123.490799 480.991241,123.203011 480.984619,122.699417 
	C481.145447,122.909538 481.308563,123.335487 481.233337,123.770012 
z"/>
<path fill="#FDEFEF" opacity="1.000000" stroke="none" 
	d="
M546.233215,123.770050 
	C545.994263,123.490814 545.991638,123.203033 545.984741,122.699455 
	C546.145447,122.909576 546.308533,123.335526 546.233215,123.770050 
z"/>
<path fill="#7DB750" opacity="1.000000" stroke="none" 
	d="
M740.637329,100.986435 
	C736.681946,100.999954 733.178772,100.849426 729.695129,101.045586 
	C726.329956,101.235085 725.586487,99.716957 726.377380,96.816856 
	C732.344055,94.694298 732.954773,92.807594 731.216492,81.349854 
	C723.740723,81.349854 716.212341,81.349854 708.404419,81.349854 
	C708.404419,86.017555 708.404419,90.454582 708.404419,95.188248 
	C710.543396,96.161766 714.938171,95.729462 712.484314,100.724594 
	C707.543945,100.724594 702.465942,100.724594 697.381104,100.724594 
	C695.581604,96.508430 697.999817,95.676819 701.831116,95.620705 
	C701.831116,84.847099 701.875366,74.254265 701.741272,63.663685 
	C701.731262,62.876034 700.504761,61.508175 699.736511,61.427124 
	C696.081238,61.041531 696.519409,58.934528 697.299316,56.258110 
	C702.415039,56.258110 707.495667,56.258110 712.720398,56.258110 
	C713.197693,58.826931 713.963196,61.063396 710.195496,61.463749 
	C709.420044,61.546150 708.296814,63.231636 708.230774,64.237160 
	C707.992371,67.864777 708.137024,71.517540 708.137024,75.577347 
	C715.972107,75.577347 723.507690,75.577347 731.046936,75.573639 
	C733.354492,65.787064 732.224182,61.862732 726.399902,60.751541 
	C726.340515,59.443573 726.276794,58.039883 726.198181,56.308064 
	C731.809143,56.308064 737.052795,56.308064 742.420898,56.308064 
	C744.377380,60.547153 741.739258,61.422256 738.177246,61.558395 
	C738.177246,72.927254 738.177246,84.000641 738.177246,95.050224 
	C743.880798,96.774445 744.384521,97.822456 740.637329,100.986435 
z"/>
<path fill="#7EB24F" opacity="1.000000" stroke="none" 
	d="
M794.881409,70.591187 
	C793.617249,71.500824 792.441406,72.001709 790.700745,72.743164 
	C793.217346,79.789162 795.747253,86.872467 798.277161,93.955772 
	C798.681213,93.982368 799.085266,94.008965 799.489319,94.035568 
	C802.084717,87.003883 804.680176,79.972198 806.846069,74.104187 
	C804.979004,71.609978 803.725830,69.935890 801.702881,67.233536 
	C808.624878,67.233536 813.736755,67.233536 819.155029,67.233536 
	C819.880676,69.666489 820.323364,71.435654 816.658752,72.061363 
	C815.034302,72.338715 813.039612,74.173637 812.383057,75.779800 
	C808.543762,85.172592 805.112244,94.730934 801.422791,104.186447 
	C798.156372,112.558067 794.066345,114.291260 785.109680,111.051941 
	C785.535828,109.725777 785.966309,108.386169 786.451294,106.876961 
	C788.059387,107.198685 789.503174,107.948181 790.602234,107.602318 
	C792.368164,107.046608 794.358276,106.093193 795.380493,104.677361 
	C796.052979,103.745880 795.495117,101.592880 794.966614,100.182289 
	C791.872620,91.924339 788.757751,83.667549 785.312439,75.553673 
	C784.653381,74.001503 782.443970,73.137627 781.030701,71.866364 
	C779.862488,70.815582 778.813721,69.632118 777.712036,68.507446 
	C778.017700,68.008713 778.323364,67.509972 778.629028,67.011238 
	C783.403503,67.011238 788.185730,66.877083 792.944275,67.152870 
	C793.675476,67.195251 794.297241,69.125351 794.881409,70.591187 
z"/>
<path fill="#7EB24F" opacity="1.000000" stroke="none" 
	d="
M766.312317,67.121399 
	C776.097107,71.035370 780.143188,78.221901 778.222229,87.611351 
	C776.146240,97.758766 768.311768,102.895515 757.921326,100.921822 
	C749.774292,99.374275 744.097900,90.441254 745.453125,81.510773 
	C746.705627,73.257057 752.153137,65.220680 766.312317,67.121399 
M766.920593,73.309441 
	C765.664734,72.894211 764.430420,72.215782 763.149231,72.111107 
	C758.559387,71.736160 755.064209,73.553131 753.007812,77.782631 
	C750.659851,82.611687 751.618408,89.803764 755.175171,93.163841 
	C758.426636,96.235641 762.242432,96.710953 766.248230,94.856476 
	C773.655151,91.427437 774.346863,79.974319 766.920593,73.309441 
z"/>
<path fill="#E5302D" opacity="1.000000" stroke="none" 
	d="
M339.372925,58.784004 
	C339.372864,54.854553 339.372864,51.392891 339.372864,46.944218 
	C344.282410,47.291180 348.850861,47.273445 353.287567,48.029171 
	C357.245331,48.703320 359.000519,51.719170 358.829742,55.715458 
	C358.657837,59.736908 356.518555,62.403046 352.601624,62.918919 
	C349.010773,63.391846 345.295776,63.386559 341.697052,63.007431 
	C340.800415,62.912968 340.141266,60.564335 339.372925,58.784004 
z"/>
<path fill="#E5302D" opacity="1.000000" stroke="none" 
	d="
M531.716675,63.201111 
	C528.141418,63.201927 525.025513,63.201927 521.685608,63.201927 
	C521.685608,57.672077 521.685608,52.624050 521.685608,47.375050 
	C525.441895,47.375050 528.908813,47.133121 532.329163,47.429138 
	C538.125061,47.930744 540.783203,50.521751 540.841919,55.174999 
	C540.904053,60.101704 538.313293,62.500919 531.716675,63.201111 
z"/>
<path fill="#E63634" opacity="1.000000" stroke="none" 
	d="
M404.155212,66.146561 
	C406.008789,60.423676 407.800995,55.105835 410.080078,48.343327 
	C412.428375,55.373524 414.343658,61.107395 416.691864,68.137291 
	C411.816803,67.523682 407.955322,67.037651 404.155212,66.146561 
z"/>
<path fill="#E63735" opacity="1.000000" stroke="none" 
	d="
M414.966675,115.094360 
	C417.045502,114.676399 418.917572,114.573456 420.789673,114.470520 
	C420.900757,116.498657 421.450775,118.654572 420.915192,120.494469 
	C420.688751,121.272301 417.020813,121.967514 416.890045,121.707634 
	C415.903717,119.747223 415.408539,117.539703 414.966675,115.094360 
z"/>
<path fill="#E63835" opacity="1.000000" stroke="none" 
	d="
M500.166809,113.935730 
	C500.848511,114.687416 501.593201,115.306915 501.506714,115.771713 
	C501.141449,117.734306 500.823303,119.826363 499.836609,121.483231 
	C499.517334,122.019341 496.429260,121.870590 495.969513,121.157349 
	C495.026764,119.694771 494.158325,117.163986 494.835297,115.956741 
	C495.551270,114.679916 498.099548,114.430550 500.166809,113.935730 
z"/>
<path fill="#E63835" opacity="1.000000" stroke="none" 
	d="
M456.570374,119.417625 
	C455.902008,115.751213 456.994781,113.064682 460.580444,113.517029 
	C461.842834,113.676277 463.110321,116.737694 463.603760,118.670967 
	C463.815552,119.500702 462.059570,121.736160 461.198273,121.735825 
	C459.708466,121.735245 458.219208,120.489319 456.570374,119.417625 
z"/>
<path fill="#E63835" opacity="1.000000" stroke="none" 
	d="
M353.814636,117.964836 
	C353.431763,121.185638 351.746429,122.801910 349.078857,121.739891 
	C347.784180,121.224449 346.271484,118.960892 346.428162,117.681030 
	C346.620941,116.106514 348.452728,114.732689 349.576111,113.272125 
	C350.990723,114.706520 352.405304,116.140907 353.814636,117.964836 
z"/>
<path fill="#E63835" opacity="1.000000" stroke="none" 
	d="
M399.610962,119.505020 
	C397.675537,120.401649 395.864746,120.925995 394.054016,121.450348 
	C393.593536,119.520760 392.616791,117.516243 392.881531,115.691910 
	C393.022552,114.720558 395.311737,114.060959 396.631287,113.260628 
	C397.666077,115.217995 398.700836,117.175369 399.610962,119.505020 
z"/>
<path fill="#E63431" opacity="1.000000" stroke="none" 
	d="
M430.188354,114.687439 
	C433.371368,112.029343 435.384613,112.983665 436.810608,115.895653 
	C436.617584,116.419029 436.424561,116.942398 436.231506,117.465775 
	C434.151947,116.661324 432.072357,115.856880 430.188354,114.687439 
z"/>
<path fill="#E63533" opacity="1.000000" stroke="none" 
	d="
M533.808350,113.311432 
	C534.815857,113.894722 536.030762,114.437408 535.997803,114.888847 
	C535.836426,117.095871 535.342285,119.278557 534.965881,121.469849 
	C533.353455,121.143120 530.400757,120.938164 530.358032,120.468826 
	C530.162476,118.316078 530.675110,116.063377 531.203979,113.913071 
	C531.299377,113.525093 532.662659,113.448914 533.808350,113.311432 
z"/>
<path fill="#941C1C" opacity="1.000000" stroke="none" 
	d="
M767.249207,73.516800 
	C774.346863,79.974319 773.655151,91.427437 766.248230,94.856476 
	C762.242432,96.710953 758.426636,96.235641 755.175171,93.163841 
	C751.618408,89.803764 750.659851,82.611687 753.007812,77.782631 
	C755.064209,73.553131 758.559387,71.736160 763.149231,72.111107 
	C764.430420,72.215782 765.664734,72.894211 767.249207,73.516800 
z"/>
</svg>