<?xml version="1.0" encoding="UTF-8"?>
<!DOCTYPE svg PUBLIC "-//W3C//DTD SVG 1.1//EN" "http://www.w3.org/Graphics/SVG/1.1/DTD/svg11.dtd">
<svg xmlns="http://www.w3.org/2000/svg" version="1.1" width="1502px" height="476px" style="shape-rendering:geometricPrecision; text-rendering:geometricPrecision; image-rendering:optimizeQuality; fill-rule:evenodd; clip-rule:evenodd" xmlns:xlink="http://www.w3.org/1999/xlink">
<g><path style="opacity:0.056" fill="#030304" d="M 349.5,124.5 C 349.842,125.338 350.508,125.672 351.5,125.5C 351.5,128.167 351.5,130.833 351.5,133.5C 352.5,133.5 353.5,133.5 354.5,133.5C 354.5,137.5 354.5,141.5 354.5,145.5C 355.5,145.5 356.5,145.5 357.5,145.5C 357.5,152.5 357.5,159.5 357.5,166.5C 358.5,166.5 359.5,166.5 360.5,166.5C 360.5,171.833 360.5,177.167 360.5,182.5C 359.5,182.5 358.5,182.5 357.5,182.5C 357.5,189.5 357.5,196.5 357.5,203.5C 356.5,203.5 355.5,203.5 354.5,203.5C 354.5,207.5 354.5,211.5 354.5,215.5C 353.5,215.5 352.5,215.5 351.5,215.5C 351.5,218.5 351.5,221.5 351.5,224.5C 350.5,224.5 349.5,224.5 348.5,224.5C 348.5,227.5 348.5,230.5 348.5,233.5C 347.5,233.5 346.5,233.5 345.5,233.5C 345.5,235.5 345.5,237.5 345.5,239.5C 344.5,239.5 343.5,239.5 342.5,239.5C 342.5,241.833 342.5,244.167 342.5,246.5C 341.5,246.5 340.5,246.5 339.5,246.5C 339.5,248.5 339.5,250.5 339.5,252.5C 338.5,252.5 337.5,252.5 336.5,252.5C 336.5,253.5 336.5,254.5 336.5,255.5C 335.5,255.5 334.5,255.5 333.5,255.5C 333.5,257.5 333.5,259.5 333.5,261.5C 332.5,261.5 331.5,261.5 330.5,261.5C 330.5,262.5 330.5,263.5 330.5,264.5C 329.5,264.5 328.5,264.5 327.5,264.5C 327.5,265.5 327.5,266.5 327.5,267.5C 326.5,267.5 325.5,267.5 324.5,267.5C 324.5,268.5 324.5,269.5 324.5,270.5C 323.5,270.5 322.5,270.5 321.5,270.5C 321.5,272.5 321.5,274.5 321.5,276.5C 320.5,276.5 319.5,276.5 318.5,276.5C 318.5,277.5 318.5,278.5 318.5,279.5C 317.5,279.5 316.5,279.5 315.5,279.5C 315.5,280.5 315.5,281.5 315.5,282.5C 314.167,282.5 312.833,282.5 311.5,282.5C 311.5,283.5 311.5,284.5 311.5,285.5C 310.5,285.5 309.5,285.5 308.5,285.5C 308.5,286.5 308.5,287.5 308.5,288.5C 306.5,288.5 304.5,288.5 302.5,288.5C 302.5,289.5 302.5,290.5 302.5,291.5C 301.5,291.5 300.5,291.5 299.5,291.5C 299.5,292.5 299.5,293.5 299.5,294.5C 298.5,294.5 297.5,294.5 296.5,294.5C 296.5,295.5 296.5,296.5 296.5,297.5C 294.5,297.5 292.5,297.5 290.5,297.5C 290.5,298.5 290.5,299.5 290.5,300.5C 289.5,300.5 288.5,300.5 287.5,300.5C 287.5,301.5 287.5,302.5 287.5,303.5C 285.5,303.5 283.5,303.5 281.5,303.5C 281.5,304.833 281.5,306.167 281.5,307.5C 279.5,307.5 277.5,307.5 275.5,307.5C 275.5,308.5 275.5,309.5 275.5,310.5C 273.5,310.5 271.5,310.5 269.5,310.5C 269.5,311.5 269.5,312.5 269.5,313.5C 267.5,313.5 265.5,313.5 263.5,313.5C 263.5,314.5 263.5,315.5 263.5,316.5C 261.5,316.5 259.5,316.5 257.5,316.5C 257.5,317.5 257.5,318.5 257.5,319.5C 253.167,319.5 248.833,319.5 244.5,319.5C 244.5,320.5 244.5,321.5 244.5,322.5C 240.5,322.5 236.5,322.5 232.5,322.5C 232.5,323.5 232.5,324.5 232.5,325.5C 226.5,325.5 220.5,325.5 214.5,325.5C 214.5,326.5 214.5,327.5 214.5,328.5C 204.167,328.5 193.833,328.5 183.5,328.5C 183.5,327.5 183.5,326.5 183.5,325.5C 177.5,325.5 171.5,325.5 165.5,325.5C 165.5,324.5 165.5,323.5 165.5,322.5C 161.5,322.5 157.5,322.5 153.5,322.5C 153.5,321.5 153.5,320.5 153.5,319.5C 150.5,319.5 147.5,319.5 144.5,319.5C 144.5,318.5 144.5,317.5 144.5,316.5C 142.5,316.5 140.5,316.5 138.5,316.5C 138.5,315.5 138.5,314.5 138.5,313.5C 136.5,313.5 134.5,313.5 132.5,313.5C 132.5,312.5 132.5,311.5 132.5,310.5C 130.5,310.5 128.5,310.5 126.5,310.5C 126.5,309.5 126.5,308.5 126.5,307.5C 124.167,307.5 121.833,307.5 119.5,307.5C 119.5,306.167 119.5,304.833 119.5,303.5C 118.5,303.5 117.5,303.5 116.5,303.5C 116.5,302.5 116.5,301.5 116.5,300.5C 142.921,312.762 170.588,316.595 199.5,312C 251.967,302.529 288.8,273.362 310,224.5C 327.335,169.006 315.169,121.173 273.5,81C 241.302,55.8673 204.968,46.8673 164.5,54C 131.903,59.4641 103.903,73.6308 80.5,96.5C 80.5,94.5 80.5,92.5 80.5,90.5C 81.5,90.5 82.5,90.5 83.5,90.5C 83.5,89.5 83.5,88.5 83.5,87.5C 84.5,87.5 85.5,87.5 86.5,87.5C 86.5,86.5 86.5,85.5 86.5,84.5C 87.5,84.5 88.5,84.5 89.5,84.5C 89.5,83.5 89.5,82.5 89.5,81.5C 90.5,81.5 91.5,81.5 92.5,81.5C 92.5,80.5 92.5,79.5 92.5,78.5C 93.5,78.5 94.5,78.5 95.5,78.5C 95.5,77.5 95.5,76.5 95.5,75.5C 96.5,75.5 97.5,75.5 98.5,75.5C 98.5,74.5 98.5,73.5 98.5,72.5C 99.5,72.5 100.5,72.5 101.5,72.5C 101.5,71.5 101.5,70.5 101.5,69.5C 102.5,69.5 103.5,69.5 104.5,69.5C 104.5,68.5 104.5,67.5 104.5,66.5C 105.5,66.5 106.5,66.5 107.5,66.5C 107.5,65.5 107.5,64.5 107.5,63.5C 108.5,63.5 109.5,63.5 110.5,63.5C 110.5,62.5 110.5,61.5 110.5,60.5C 111.5,60.5 112.5,60.5 113.5,60.5C 113.5,59.5 113.5,58.5 113.5,57.5C 115.5,57.5 117.5,57.5 119.5,57.5C 119.5,56.5 119.5,55.5 119.5,54.5C 120.833,54.5 122.167,54.5 123.5,54.5C 123.5,53.5 123.5,52.5 123.5,51.5C 125.5,51.5 127.5,51.5 129.5,51.5C 129.5,50.1667 129.5,48.8333 129.5,47.5C 131.5,47.5 133.5,47.5 135.5,47.5C 135.5,46.5 135.5,45.5 135.5,44.5C 137.5,44.5 139.5,44.5 141.5,44.5C 141.5,43.5 141.5,42.5 141.5,41.5C 143.5,41.5 145.5,41.5 147.5,41.5C 147.5,40.5 147.5,39.5 147.5,38.5C 150.5,38.5 153.5,38.5 156.5,38.5C 156.5,37.5 156.5,36.5 156.5,35.5C 160.5,35.5 164.5,35.5 168.5,35.5C 168.5,34.5 168.5,33.5 168.5,32.5C 172.5,32.5 176.5,32.5 180.5,32.5C 180.5,31.5 180.5,30.5 180.5,29.5C 186.833,29.5 193.167,29.5 199.5,29.5C 199.5,28.5 199.5,27.5 199.5,26.5C 209.5,26.5 219.5,26.5 229.5,26.5C 229.5,27.5 229.5,28.5 229.5,29.5C 235.5,29.5 241.5,29.5 247.5,29.5C 247.5,30.5 247.5,31.5 247.5,32.5C 251.833,32.5 256.167,32.5 260.5,32.5C 260.5,33.5 260.5,34.5 260.5,35.5C 263.5,35.5 266.5,35.5 269.5,35.5C 269.5,36.5 269.5,37.5 269.5,38.5C 271.5,38.5 273.5,38.5 275.5,38.5C 275.5,39.5 275.5,40.5 275.5,41.5C 277.5,41.5 279.5,41.5 281.5,41.5C 281.5,42.5 281.5,43.5 281.5,44.5C 283.5,44.5 285.5,44.5 287.5,44.5C 287.5,45.5 287.5,46.5 287.5,47.5C 289.5,47.5 291.5,47.5 293.5,47.5C 293.5,48.8333 293.5,50.1667 293.5,51.5C 294.5,51.5 295.5,51.5 296.5,51.5C 296.5,52.5 296.5,53.5 296.5,54.5C 298.5,54.5 300.5,54.5 302.5,54.5C 302.5,55.5 302.5,56.5 302.5,57.5C 303.5,57.5 304.5,57.5 305.5,57.5C 305.5,58.5 305.5,59.5 305.5,60.5C 306.5,60.5 307.5,60.5 308.5,60.5C 308.5,61.5 308.5,62.5 308.5,63.5C 309.5,63.5 310.5,63.5 311.5,63.5C 311.5,64.5 311.5,65.5 311.5,66.5C 312.833,66.5 314.167,66.5 315.5,66.5C 315.5,67.5 315.5,68.5 315.5,69.5C 316.5,69.5 317.5,69.5 318.5,69.5C 318.5,70.5 318.5,71.5 318.5,72.5C 319.5,72.5 320.5,72.5 321.5,72.5C 321.5,73.5 321.5,74.5 321.5,75.5C 322.5,75.5 323.5,75.5 324.5,75.5C 324.5,76.5 324.5,77.5 324.5,78.5C 325.5,78.5 326.5,78.5 327.5,78.5C 327.5,79.5 327.5,80.5 327.5,81.5C 328.5,81.5 329.5,81.5 330.5,81.5C 330.5,83.5 330.5,85.5 330.5,87.5C 331.5,87.5 332.5,87.5 333.5,87.5C 333.5,88.5 333.5,89.5 333.5,90.5C 334.5,90.5 335.5,90.5 336.5,90.5C 336.5,92.5 336.5,94.5 336.5,96.5C 337.5,96.5 338.5,96.5 339.5,96.5C 339.5,98.5 339.5,100.5 339.5,102.5C 340.5,102.5 341.5,102.5 342.5,102.5C 342.5,104.5 342.5,106.5 342.5,108.5C 343.5,108.5 344.5,108.5 345.5,108.5C 345.5,110.833 345.5,113.167 345.5,115.5C 346.5,115.5 347.5,115.5 348.5,115.5C 348.19,118.713 348.523,121.713 349.5,124.5 Z"/></g>
<g><path style="opacity:0.048" fill="#030304" d="M 1058.5,304.5 C 1098.55,320.468 1135.89,315.635 1170.5,290C 1210.5,253.812 1219,211.312 1196,162.5C 1172.79,125.32 1139.29,109.82 1095.5,116C 1080.43,118.746 1066.1,123.579 1052.5,130.5C 1052.5,129.5 1052.5,128.5 1052.5,127.5C 1053.5,127.5 1054.5,127.5 1055.5,127.5C 1055.5,126.5 1055.5,125.5 1055.5,124.5C 1056.5,124.5 1057.5,124.5 1058.5,124.5C 1058.5,123.5 1058.5,122.5 1058.5,121.5C 1060.5,121.5 1062.5,121.5 1064.5,121.5C 1064.5,120.5 1064.5,119.5 1064.5,118.5C 1065.5,118.5 1066.5,118.5 1067.5,118.5C 1067.5,117.5 1067.5,116.5 1067.5,115.5C 1069.5,115.5 1071.5,115.5 1073.5,115.5C 1073.5,114.167 1073.5,112.833 1073.5,111.5C 1074.5,111.5 1075.5,111.5 1076.5,111.5C 1076.5,110.5 1076.5,109.5 1076.5,108.5C 1077.83,108.5 1079.17,108.5 1080.5,108.5C 1080.5,106.5 1080.5,104.5 1080.5,102.5C 1079.17,102.5 1077.83,102.5 1076.5,102.5C 1076.5,100.5 1076.5,98.5 1076.5,96.5C 1102.78,84.3505 1130.11,74.8505 1158.5,68C 1158.96,67.586 1159.29,67.086 1159.5,66.5C 1149.69,59.2626 1138.69,55.4292 1126.5,55C 1111.01,64.9963 1095.68,75.163 1080.5,85.5C 1080.5,84.1667 1080.5,82.8333 1080.5,81.5C 1081.5,81.5 1082.5,81.5 1083.5,81.5C 1083.5,80.5 1083.5,79.5 1083.5,78.5C 1084.5,78.5 1085.5,78.5 1086.5,78.5C 1086.5,77.5 1086.5,76.5 1086.5,75.5C 1088.5,75.5 1090.5,75.5 1092.5,75.5C 1092.5,74.5 1092.5,73.5 1092.5,72.5C 1093.5,72.5 1094.5,72.5 1095.5,72.5C 1095.5,71.5 1095.5,70.5 1095.5,69.5C 1097.5,69.5 1099.5,69.5 1101.5,69.5C 1101.5,68.5 1101.5,67.5 1101.5,66.5C 1102.5,66.5 1103.5,66.5 1104.5,66.5C 1104.5,65.5 1104.5,64.5 1104.5,63.5C 1106.5,63.5 1108.5,63.5 1110.5,63.5C 1110.5,62.5 1110.5,61.5 1110.5,60.5C 1111.5,60.5 1112.5,60.5 1113.5,60.5C 1113.5,59.5 1113.5,58.5 1113.5,57.5C 1115.5,57.5 1117.5,57.5 1119.5,57.5C 1119.5,56.5 1119.5,55.5 1119.5,54.5C 1120.5,54.5 1121.5,54.5 1122.5,54.5C 1122.5,53.5 1122.5,52.5 1122.5,51.5C 1124.5,51.5 1126.5,51.5 1128.5,51.5C 1128.5,50.1667 1128.5,48.8333 1128.5,47.5C 1129.5,47.5 1130.5,47.5 1131.5,47.5C 1131.5,46.5 1131.5,45.5 1131.5,44.5C 1133.5,44.5 1135.5,44.5 1137.5,44.5C 1137.5,43.5 1137.5,42.5 1137.5,41.5C 1139.83,41.5 1142.17,41.5 1144.5,41.5C 1144.5,40.5 1144.5,39.5 1144.5,38.5C 1153.5,38.5 1162.5,38.5 1171.5,38.5C 1171.5,39.5 1171.5,40.5 1171.5,41.5C 1174.5,41.5 1177.5,41.5 1180.5,41.5C 1180.5,42.5 1180.5,43.5 1180.5,44.5C 1182.5,44.5 1184.5,44.5 1186.5,44.5C 1186.5,45.5 1186.5,46.5 1186.5,47.5C 1187.5,47.5 1188.5,47.5 1189.5,47.5C 1189.5,48.8333 1189.5,50.1667 1189.5,51.5C 1190.5,51.5 1191.5,51.5 1192.5,51.5C 1192.5,53.5 1192.5,55.5 1192.5,57.5C 1193.5,57.5 1194.5,57.5 1195.5,57.5C 1195.5,62.5 1195.5,67.5 1195.5,72.5C 1194.5,72.5 1193.5,72.5 1192.5,72.5C 1192.5,74.5 1192.5,76.5 1192.5,78.5C 1191.5,78.5 1190.5,78.5 1189.5,78.5C 1189.5,79.5 1189.5,80.5 1189.5,81.5C 1188.5,81.5 1187.5,81.5 1186.5,81.5C 1186.5,82.5 1186.5,83.5 1186.5,84.5C 1183.5,84.5 1180.5,84.5 1177.5,84.5C 1177.5,85.5 1177.5,86.5 1177.5,87.5C 1174.5,87.5 1171.5,87.5 1168.5,87.5C 1168.5,88.5 1168.5,89.5 1168.5,90.5C 1164.5,90.5 1160.5,90.5 1156.5,90.5C 1156.5,91.5 1156.5,92.5 1156.5,93.5C 1154.5,93.5 1152.5,93.5 1150.5,93.5C 1150.5,94.5 1150.5,95.5 1150.5,96.5C 1151.5,96.5 1152.5,96.5 1153.5,96.5C 1153.5,97.5 1153.5,98.5 1153.5,99.5C 1158.5,99.5 1163.5,99.5 1168.5,99.5C 1168.5,100.5 1168.5,101.5 1168.5,102.5C 1171.5,102.5 1174.5,102.5 1177.5,102.5C 1177.5,103.5 1177.5,104.5 1177.5,105.5C 1180.5,105.5 1183.5,105.5 1186.5,105.5C 1186.5,106.5 1186.5,107.5 1186.5,108.5C 1188.5,108.5 1190.5,108.5 1192.5,108.5C 1192.5,109.5 1192.5,110.5 1192.5,111.5C 1194.5,111.5 1196.5,111.5 1198.5,111.5C 1198.5,112.833 1198.5,114.167 1198.5,115.5C 1199.5,115.5 1200.5,115.5 1201.5,115.5C 1201.5,116.5 1201.5,117.5 1201.5,118.5C 1202.5,118.5 1203.5,118.5 1204.5,118.5C 1204.5,119.5 1204.5,120.5 1204.5,121.5C 1206.83,121.5 1209.17,121.5 1211.5,121.5C 1211.5,122.5 1211.5,123.5 1211.5,124.5C 1212.5,124.5 1213.5,124.5 1214.5,124.5C 1214.5,125.5 1214.5,126.5 1214.5,127.5C 1215.5,127.5 1216.5,127.5 1217.5,127.5C 1217.5,128.5 1217.5,129.5 1217.5,130.5C 1218.5,130.5 1219.5,130.5 1220.5,130.5C 1220.5,131.5 1220.5,132.5 1220.5,133.5C 1221.5,133.5 1222.5,133.5 1223.5,133.5C 1223.5,134.5 1223.5,135.5 1223.5,136.5C 1224.5,136.5 1225.5,136.5 1226.5,136.5C 1226.5,138.5 1226.5,140.5 1226.5,142.5C 1227.5,142.5 1228.5,142.5 1229.5,142.5C 1229.5,143.5 1229.5,144.5 1229.5,145.5C 1230.5,145.5 1231.5,145.5 1232.5,145.5C 1232.5,146.5 1232.5,147.5 1232.5,148.5C 1233.5,148.5 1234.5,148.5 1235.5,148.5C 1235.5,150.5 1235.5,152.5 1235.5,154.5C 1236.5,154.5 1237.5,154.5 1238.5,154.5C 1238.5,156.5 1238.5,158.5 1238.5,160.5C 1239.5,160.5 1240.5,160.5 1241.5,160.5C 1241.5,163.5 1241.5,166.5 1241.5,169.5C 1242.5,169.5 1243.5,169.5 1244.5,169.5C 1244.5,172.833 1244.5,176.167 1244.5,179.5C 1245.5,179.5 1246.5,179.5 1247.5,179.5C 1247.5,184.5 1247.5,189.5 1247.5,194.5C 1248.5,194.5 1249.5,194.5 1250.5,194.5C 1250.5,204.5 1250.5,214.5 1250.5,224.5C 1249.5,224.5 1248.5,224.5 1247.5,224.5C 1247.5,229.5 1247.5,234.5 1247.5,239.5C 1246.5,239.5 1245.5,239.5 1244.5,239.5C 1244.5,242.833 1244.5,246.167 1244.5,249.5C 1243.5,249.5 1242.5,249.5 1241.5,249.5C 1241.5,252.5 1241.5,255.5 1241.5,258.5C 1240.5,258.5 1239.5,258.5 1238.5,258.5C 1238.5,260.5 1238.5,262.5 1238.5,264.5C 1237.5,264.5 1236.5,264.5 1235.5,264.5C 1235.5,265.5 1235.5,266.5 1235.5,267.5C 1234.5,267.5 1233.5,267.5 1232.5,267.5C 1232.5,269.5 1232.5,271.5 1232.5,273.5C 1231.5,273.5 1230.5,273.5 1229.5,273.5C 1229.5,274.5 1229.5,275.5 1229.5,276.5C 1228.5,276.5 1227.5,276.5 1226.5,276.5C 1226.5,278.5 1226.5,280.5 1226.5,282.5C 1225.5,282.5 1224.5,282.5 1223.5,282.5C 1223.5,283.5 1223.5,284.5 1223.5,285.5C 1222.5,285.5 1221.5,285.5 1220.5,285.5C 1220.5,286.5 1220.5,287.5 1220.5,288.5C 1219.5,288.5 1218.5,288.5 1217.5,288.5C 1217.5,289.5 1217.5,290.5 1217.5,291.5C 1216.5,291.5 1215.5,291.5 1214.5,291.5C 1214.5,292.5 1214.5,293.5 1214.5,294.5C 1213.5,294.5 1212.5,294.5 1211.5,294.5C 1211.5,295.5 1211.5,296.5 1211.5,297.5C 1210.5,297.5 1209.5,297.5 1208.5,297.5C 1208.5,298.5 1208.5,299.5 1208.5,300.5C 1206.17,300.5 1203.83,300.5 1201.5,300.5C 1201.5,301.5 1201.5,302.5 1201.5,303.5C 1200.5,303.5 1199.5,303.5 1198.5,303.5C 1198.5,304.833 1198.5,306.167 1198.5,307.5C 1197.5,307.5 1196.5,307.5 1195.5,307.5C 1195.5,308.5 1195.5,309.5 1195.5,310.5C 1193.5,310.5 1191.5,310.5 1189.5,310.5C 1189.5,311.5 1189.5,312.5 1189.5,313.5C 1187.5,313.5 1185.5,313.5 1183.5,313.5C 1183.5,314.5 1183.5,315.5 1183.5,316.5C 1181.5,316.5 1179.5,316.5 1177.5,316.5C 1177.5,317.5 1177.5,318.5 1177.5,319.5C 1174.5,319.5 1171.5,319.5 1168.5,319.5C 1168.5,320.5 1168.5,321.5 1168.5,322.5C 1164.5,322.5 1160.5,322.5 1156.5,322.5C 1156.5,323.5 1156.5,324.5 1156.5,325.5C 1150.17,325.5 1143.83,325.5 1137.5,325.5C 1137.5,326.5 1137.5,327.5 1137.5,328.5C 1129.5,328.5 1121.5,328.5 1113.5,328.5C 1113.5,327.5 1113.5,326.5 1113.5,325.5C 1107.5,325.5 1101.5,325.5 1095.5,325.5C 1095.5,324.5 1095.5,323.5 1095.5,322.5C 1092.5,322.5 1089.5,322.5 1086.5,322.5C 1086.5,321.5 1086.5,320.5 1086.5,319.5C 1083.17,319.5 1079.83,319.5 1076.5,319.5C 1076.5,318.5 1076.5,317.5 1076.5,316.5C 1074.5,316.5 1072.5,316.5 1070.5,316.5C 1070.5,315.5 1070.5,314.5 1070.5,313.5C 1068.5,313.5 1066.5,313.5 1064.5,313.5C 1064.5,312.5 1064.5,311.5 1064.5,310.5C 1063.5,310.5 1062.5,310.5 1061.5,310.5C 1061.5,309.5 1061.5,308.5 1061.5,307.5C 1060.5,307.5 1059.5,307.5 1058.5,307.5C 1058.5,306.5 1058.5,305.5 1058.5,304.5 Z"/></g>
<g><path style="opacity:0.982" fill="#691833" d="M 116.5,300.5 C 114.328,299.794 112.328,298.794 110.5,297.5C 109.71,296.599 108.71,295.932 107.5,295.5C 75.8835,274.642 56.7168,245.308 50,207.5C 43.3777,169.067 51.5444,134.4 74.5,103.5C 76.2624,102.738 77.2624,101.404 77.5,99.5C 78.8333,98.8333 79.8333,97.8333 80.5,96.5C 103.903,73.6308 131.903,59.4641 164.5,54C 204.968,46.8673 241.302,55.8673 273.5,81C 315.169,121.173 327.335,169.006 310,224.5C 288.8,273.362 251.967,302.529 199.5,312C 170.588,316.595 142.921,312.762 116.5,300.5 Z M 217.5,72.5 C 218.609,72.5569 219.609,72.8902 220.5,73.5C 220.821,75.0481 221.821,75.7148 223.5,75.5C 245.649,88.4961 261.149,107.163 270,131.5C 283.94,170.535 283.94,209.535 270,248.5C 266.995,255.182 263.495,261.516 259.5,267.5C 258.167,267.5 257.5,268.167 257.5,269.5C 257.5,270.167 257.167,270.5 256.5,270.5C 254.833,270.5 253.167,270.5 251.5,270.5C 251.5,271.5 251.5,272.5 251.5,273.5C 250.167,273.5 248.833,273.5 247.5,273.5C 247.5,274.5 247.5,275.5 247.5,276.5C 245.5,276.5 243.5,276.5 241.5,276.5C 241.5,277.5 241.5,278.5 241.5,279.5C 238.5,279.5 235.5,279.5 232.5,279.5C 232.5,280.5 232.5,281.5 232.5,282.5C 219.5,282.5 206.5,282.5 193.5,282.5C 193.5,281.5 193.5,280.5 193.5,279.5C 190.167,279.5 186.833,279.5 183.5,279.5C 183.5,278.5 183.5,277.5 183.5,276.5C 181.5,276.5 179.5,276.5 177.5,276.5C 177.5,275.5 177.5,274.5 177.5,273.5C 176.5,273.5 175.5,273.5 174.5,273.5C 174.5,272.5 174.5,271.5 174.5,270.5C 172.5,270.5 170.5,270.5 168.5,270.5C 168.5,269.5 168.5,268.5 168.5,267.5C 167.5,267.5 166.5,267.5 165.5,267.5C 165.5,266.5 165.5,265.5 165.5,264.5C 164.5,264.5 163.5,264.5 162.5,264.5C 162.5,263.5 162.5,262.5 162.5,261.5C 161.5,261.5 160.5,261.5 159.5,261.5C 159.5,260.5 159.5,259.5 159.5,258.5C 158.5,258.5 157.5,258.5 156.5,258.5C 156.5,257.5 156.5,256.5 156.5,255.5C 155.5,255.5 154.5,255.5 153.5,255.5C 153.5,253.5 153.5,251.5 153.5,249.5C 152.5,249.5 151.5,249.5 150.5,249.5C 150.5,248.5 150.5,247.5 150.5,246.5C 149.5,246.5 148.5,246.5 147.5,246.5C 147.5,244.167 147.5,241.833 147.5,239.5C 146.5,239.5 145.5,239.5 144.5,239.5C 144.5,237.5 144.5,235.5 144.5,233.5C 143.5,233.5 142.5,233.5 141.5,233.5C 141.5,231.5 141.5,229.5 141.5,227.5C 140.5,227.5 139.5,227.5 138.5,227.5C 138.5,225.5 138.5,223.5 138.5,221.5C 137.5,221.5 136.5,221.5 135.5,221.5C 135.5,219.833 135.5,218.167 135.5,216.5C 150.833,216.5 166.167,216.5 181.5,216.5C 182.426,209.483 182.426,202.483 181.5,195.5C 179.544,202.245 175.544,207.411 169.5,211C 161.898,212.523 154.232,212.856 146.5,212C 145.584,211.626 144.75,211.126 144,210.5C 142.368,189.564 142.034,168.564 143,147.5C 143.273,145.899 143.773,144.399 144.5,143C 147.19,142.229 149.856,141.396 152.5,140.5C 144.862,139.503 137.196,139.169 129.5,139.5C 129.5,135.5 129.5,131.5 129.5,127.5C 130.5,127.5 131.5,127.5 132.5,127.5C 132.5,123.5 132.5,119.5 132.5,115.5C 133.5,115.5 134.5,115.5 135.5,115.5C 135.5,113.167 135.5,110.833 135.5,108.5C 136.5,108.5 137.5,108.5 138.5,108.5C 138.5,106.5 138.5,104.5 138.5,102.5C 139.5,102.5 140.5,102.5 141.5,102.5C 141.5,101.5 141.5,100.5 141.5,99.5C 142.5,99.5 143.5,99.5 144.5,99.5C 144.5,97.5 144.5,95.5 144.5,93.5C 145.5,93.5 146.5,93.5 147.5,93.5C 147.5,92.5 147.5,91.5 147.5,90.5C 148.5,90.5 149.5,90.5 150.5,90.5C 150.5,89.5 150.5,88.5 150.5,87.5C 151.5,87.5 152.5,87.5 153.5,87.5C 153.5,86.5 153.5,85.5 153.5,84.5C 154.5,84.5 155.5,84.5 156.5,84.5C 156.5,83.5 156.5,82.5 156.5,81.5C 158.5,81.5 160.5,81.5 162.5,81.5C 162.5,80.5 162.5,79.5 162.5,78.5C 164.5,78.5 166.5,78.5 168.5,78.5C 168.5,77.5 168.5,76.5 168.5,75.5C 170.5,75.5 172.5,75.5 174.5,75.5C 174.5,74.5 174.5,73.5 174.5,72.5C 188.833,72.5 203.167,72.5 217.5,72.5 Z M 129.5,142.5 C 131.067,143.681 131.901,145.347 132,147.5C 132.5,165.164 132.667,182.83 132.5,200.5C 131.5,200.5 130.5,200.5 129.5,200.5C 129.5,190.167 129.5,179.833 129.5,169.5C 128.5,169.5 127.5,169.5 126.5,169.5C 126.5,167.5 126.5,165.5 126.5,163.5C 127.5,163.5 128.5,163.5 129.5,163.5C 129.5,156.5 129.5,149.5 129.5,142.5 Z M 213.5,172.5 C 216.281,176.036 218.614,180.036 220.5,184.5C 216.893,185.489 213.226,185.823 209.5,185.5C 210.833,181.167 212.167,176.833 213.5,172.5 Z"/></g>
<g><path style="opacity:0.963" fill="#5c5f6c" d="M 1076.5,96.5 C 1073.42,97.2024 1070.42,98.2024 1067.5,99.5C 1063.55,97.497 1063.55,95.3303 1067.5,93C 1071.98,90.6721 1076.31,88.1721 1080.5,85.5C 1095.68,75.163 1111.01,64.9963 1126.5,55C 1138.69,55.4292 1149.69,59.2626 1159.5,66.5C 1159.29,67.086 1158.96,67.586 1158.5,68C 1130.11,74.8505 1102.78,84.3505 1076.5,96.5 Z"/></g>
<g><path style="opacity:0.069" fill="#030304" d="M 217.5,72.5 C 203.167,72.5 188.833,72.5 174.5,72.5C 174.5,73.5 174.5,74.5 174.5,75.5C 172.5,75.5 170.5,75.5 168.5,75.5C 168.5,76.5 168.5,77.5 168.5,78.5C 166.5,78.5 164.5,78.5 162.5,78.5C 162.5,79.5 162.5,80.5 162.5,81.5C 160.5,81.5 158.5,81.5 156.5,81.5C 156.5,82.5 156.5,83.5 156.5,84.5C 155.5,84.5 154.5,84.5 153.5,84.5C 153.5,85.5 153.5,86.5 153.5,87.5C 152.5,87.5 151.5,87.5 150.5,87.5C 150.5,88.5 150.5,89.5 150.5,90.5C 149.5,90.5 148.5,90.5 147.5,90.5C 147.5,91.5 147.5,92.5 147.5,93.5C 146.5,93.5 145.5,93.5 144.5,93.5C 144.5,95.5 144.5,97.5 144.5,99.5C 143.5,99.5 142.5,99.5 141.5,99.5C 141.5,100.5 141.5,101.5 141.5,102.5C 140.5,102.5 139.5,102.5 138.5,102.5C 138.5,104.5 138.5,106.5 138.5,108.5C 137.5,108.5 136.5,108.5 135.5,108.5C 135.5,110.833 135.5,113.167 135.5,115.5C 134.5,115.5 133.5,115.5 132.5,115.5C 132.5,119.5 132.5,123.5 132.5,127.5C 131.5,127.5 130.5,127.5 129.5,127.5C 129.5,131.5 129.5,135.5 129.5,139.5C 119.115,139.468 119.115,140.468 129.5,142.5C 129.5,149.5 129.5,156.5 129.5,163.5C 128.5,163.5 127.5,163.5 126.5,163.5C 126.5,165.5 126.5,167.5 126.5,169.5C 127.5,169.5 128.5,169.5 129.5,169.5C 129.5,179.833 129.5,190.167 129.5,200.5C 130.5,200.5 131.5,200.5 132.5,200.5C 132.608,204.247 132.108,207.914 131,211.5C 127.951,212.939 124.785,214.106 121.5,215C 125.972,216.437 130.639,216.937 135.5,216.5C 135.5,218.167 135.5,219.833 135.5,221.5C 136.5,221.5 137.5,221.5 138.5,221.5C 138.5,223.5 138.5,225.5 138.5,227.5C 139.5,227.5 140.5,227.5 141.5,227.5C 141.5,229.5 141.5,231.5 141.5,233.5C 142.5,233.5 143.5,233.5 144.5,233.5C 144.5,235.5 144.5,237.5 144.5,239.5C 145.5,239.5 146.5,239.5 147.5,239.5C 147.5,241.833 147.5,244.167 147.5,246.5C 148.5,246.5 149.5,246.5 150.5,246.5C 150.5,247.5 150.5,248.5 150.5,249.5C 151.5,249.5 152.5,249.5 153.5,249.5C 153.5,251.5 153.5,253.5 153.5,255.5C 154.5,255.5 155.5,255.5 156.5,255.5C 156.5,256.5 156.5,257.5 156.5,258.5C 157.5,258.5 158.5,258.5 159.5,258.5C 159.5,259.5 159.5,260.5 159.5,261.5C 160.5,261.5 161.5,261.5 162.5,261.5C 162.5,262.5 162.5,263.5 162.5,264.5C 163.5,264.5 164.5,264.5 165.5,264.5C 165.5,265.5 165.5,266.5 165.5,267.5C 166.5,267.5 167.5,267.5 168.5,267.5C 168.5,268.5 168.5,269.5 168.5,270.5C 170.5,270.5 172.5,270.5 174.5,270.5C 174.5,271.5 174.5,272.5 174.5,273.5C 175.5,273.5 176.5,273.5 177.5,273.5C 177.5,274.5 177.5,275.5 177.5,276.5C 179.5,276.5 181.5,276.5 183.5,276.5C 183.5,277.5 183.5,278.5 183.5,279.5C 186.833,279.5 190.167,279.5 193.5,279.5C 193.5,280.5 193.5,281.5 193.5,282.5C 206.5,282.5 219.5,282.5 232.5,282.5C 232.5,281.5 232.5,280.5 232.5,279.5C 235.5,279.5 238.5,279.5 241.5,279.5C 241.5,278.5 241.5,277.5 241.5,276.5C 243.5,276.5 245.5,276.5 247.5,276.5C 247.5,275.5 247.5,274.5 247.5,273.5C 248.833,273.5 250.167,273.5 251.5,273.5C 251.5,272.5 251.5,271.5 251.5,270.5C 253.167,270.5 254.833,270.5 256.5,270.5C 243.263,288.838 225.263,299.671 202.5,303C 163.704,306.516 133.204,292.35 111,260.5C 88.8085,223.031 81.1418,182.697 88,139.5C 99.3987,82.7782 133.899,57.6116 191.5,64C 200.765,65.3668 209.432,68.2001 217.5,72.5 Z"/></g>
<g><path style="opacity:0.004" fill="#020303" d="M 220.5,73.5 C 221.71,73.9321 222.71,74.5987 223.5,75.5C 221.821,75.7148 220.821,75.0481 220.5,73.5 Z"/></g>
<g><path style="opacity:0.004" fill="#020303" d="M 80.5,96.5 C 79.8333,97.8333 78.8333,98.8333 77.5,99.5C 77.5,98.5 77.5,97.5 77.5,96.5C 78.5,96.5 79.5,96.5 80.5,96.5 Z"/></g>
<g><path style="opacity:0.004" fill="#020303" d="M 77.5,99.5 C 77.2624,101.404 76.2624,102.738 74.5,103.5C 74.5,102.167 74.5,100.833 74.5,99.5C 75.5,99.5 76.5,99.5 77.5,99.5 Z"/></g>
<g><path style="opacity:0.059" fill="#030304" d="M 538.5,124.5 C 538.842,125.338 539.508,125.672 540.5,125.5C 540.5,127.167 540.5,128.833 540.5,130.5C 541.5,130.5 542.5,130.5 543.5,130.5C 543.5,131.5 543.5,132.5 543.5,133.5C 544.5,133.5 545.5,133.5 546.5,133.5C 546.5,135.5 546.5,137.5 546.5,139.5C 547.5,139.5 548.5,139.5 549.5,139.5C 549.5,144.5 549.5,149.5 549.5,154.5C 550.5,154.5 551.5,154.5 552.5,154.5C 552.5,162.833 552.5,171.167 552.5,179.5C 551.5,179.5 550.5,179.5 549.5,179.5C 549.5,184.5 549.5,189.5 549.5,194.5C 548.5,194.5 547.5,194.5 546.5,194.5C 546.5,196.5 546.5,198.5 546.5,200.5C 545.5,200.5 544.5,200.5 543.5,200.5C 543.5,201.5 543.5,202.5 543.5,203.5C 542.5,203.5 541.5,203.5 540.5,203.5C 540.5,205.5 540.5,207.5 540.5,209.5C 539.5,209.5 538.5,209.5 537.5,209.5C 537.5,210.5 537.5,211.5 537.5,212.5C 536.5,212.5 535.5,212.5 534.5,212.5C 534.5,213.5 534.5,214.5 534.5,215.5C 533.5,215.5 532.5,215.5 531.5,215.5C 531.5,216.5 531.5,217.5 531.5,218.5C 530.5,218.5 529.5,218.5 528.5,218.5C 528.5,219.5 528.5,220.5 528.5,221.5C 527.5,221.5 526.5,221.5 525.5,221.5C 525.5,222.5 525.5,223.5 525.5,224.5C 523.5,224.5 521.5,224.5 519.5,224.5C 519.5,225.5 519.5,226.5 519.5,227.5C 518.5,227.5 517.5,227.5 516.5,227.5C 516.5,228.5 516.5,229.5 516.5,230.5C 514.5,230.5 512.5,230.5 510.5,230.5C 510.5,231.5 510.5,232.5 510.5,233.5C 508.5,233.5 506.5,233.5 504.5,233.5C 504.5,234.5 504.5,235.5 504.5,236.5C 500.167,236.5 495.833,236.5 491.5,236.5C 491.5,237.5 491.5,238.5 491.5,239.5C 486.5,239.5 481.5,239.5 476.5,239.5C 476.5,240.833 476.5,242.167 476.5,243.5C 471.5,243.5 466.5,243.5 461.5,243.5C 461.5,242.167 461.5,240.833 461.5,239.5C 460.5,239.5 459.5,239.5 458.5,239.5C 458.5,240.833 458.5,242.167 458.5,243.5C 457.5,243.5 456.5,243.5 455.5,243.5C 455.5,256.5 455.5,269.5 455.5,282.5C 456.5,282.5 457.5,282.5 458.5,282.5C 458.5,283.5 458.5,284.5 458.5,285.5C 460.5,285.5 462.5,285.5 464.5,285.5C 464.5,286.5 464.5,287.5 464.5,288.5C 467.5,288.5 470.5,288.5 473.5,288.5C 473.5,289.5 473.5,290.5 473.5,291.5C 475.5,291.5 477.5,291.5 479.5,291.5C 479.5,292.5 479.5,293.5 479.5,294.5C 480.5,294.5 481.5,294.5 482.5,294.5C 482.5,301.833 482.5,309.167 482.5,316.5C 481.5,316.5 480.5,316.5 479.5,316.5C 479.5,317.5 479.5,318.5 479.5,319.5C 477.5,319.5 475.5,319.5 473.5,319.5C 473.5,320.5 473.5,321.5 473.5,322.5C 469.5,322.5 465.5,322.5 461.5,322.5C 461.5,323.5 461.5,324.5 461.5,325.5C 437.167,325.5 412.833,325.5 388.5,325.5C 388.5,324.5 388.5,323.5 388.5,322.5C 384.167,322.5 379.833,322.5 375.5,322.5C 375.5,321.5 375.5,320.5 375.5,319.5C 373.5,319.5 371.5,319.5 369.5,319.5C 369.5,318.5 369.5,317.5 369.5,316.5C 368.5,316.5 367.5,316.5 366.5,316.5C 366.5,313.833 366.5,311.167 366.5,308.5C 393.833,308.5 421.167,308.5 448.5,308.5C 448.5,306.833 448.5,305.167 448.5,303.5C 439.034,303.273 429.7,302.106 420.5,300C 413.953,297.417 410.453,292.583 410,285.5C 409.333,237.5 409.333,189.5 410,141.5C 411.542,128.807 418.709,123.474 431.5,125.5C 446.515,125.048 458.515,130.715 467.5,142.5C 463.5,142.5 459.5,142.5 455.5,142.5C 455.5,161.833 455.5,181.167 455.5,200.5C 460.5,200.5 465.5,200.5 470.5,200.5C 463.811,212.998 453.311,219.665 439,220.5C 434.603,219.375 430.269,219.375 426,220.5C 424.794,223.838 425.96,225.671 429.5,226C 455.857,229.659 478.357,222.159 497,203.5C 511.587,183.201 513.253,161.868 502,139.5C 489.789,126.315 474.622,119.481 456.5,119C 434.478,118.502 412.478,119.002 390.5,120.5C 381.482,120.404 372.482,120.071 363.5,119.5C 363.5,116.833 363.5,114.167 363.5,111.5C 364.5,111.5 365.5,111.5 366.5,111.5C 366.5,109.5 366.5,107.5 366.5,105.5C 368.5,105.5 370.5,105.5 372.5,105.5C 372.5,104.5 372.5,103.5 372.5,102.5C 375.833,102.5 379.167,102.5 382.5,102.5C 382.5,101.5 382.5,100.5 382.5,99.5C 415.833,99.5 449.167,99.5 482.5,99.5C 482.5,100.5 482.5,101.5 482.5,102.5C 488.5,102.5 494.5,102.5 500.5,102.5C 500.5,103.5 500.5,104.5 500.5,105.5C 504.833,105.5 509.167,105.5 513.5,105.5C 513.5,106.5 513.5,107.5 513.5,108.5C 515.5,108.5 517.5,108.5 519.5,108.5C 519.5,109.5 519.5,110.5 519.5,111.5C 521.5,111.5 523.5,111.5 525.5,111.5C 525.5,112.833 525.5,114.167 525.5,115.5C 526.5,115.5 527.5,115.5 528.5,115.5C 528.5,116.5 528.5,117.5 528.5,118.5C 530.5,118.5 532.5,118.5 534.5,118.5C 534.5,119.5 534.5,120.5 534.5,121.5C 535.5,121.5 536.5,121.5 537.5,121.5C 537.263,122.791 537.596,123.791 538.5,124.5 Z M 467.5,142.5 C 476.865,161.377 477.865,180.71 470.5,200.5C 465.5,200.5 460.5,200.5 455.5,200.5C 455.5,181.167 455.5,161.833 455.5,142.5C 459.5,142.5 463.5,142.5 467.5,142.5 Z"/></g>
<g><path style="opacity:0.053" fill="#030304" d="M 825.5,206.5 C 825.667,225.836 825.5,245.17 825,264.5C 790.333,223.167 755.667,181.833 721,140.5C 716.532,133.732 711.699,127.232 706.5,121C 688.26,119.526 669.927,119.026 651.5,119.5C 651.5,121.5 651.5,123.5 651.5,125.5C 664.263,126.542 674.263,132.208 681.5,142.5C 680.167,142.5 678.833,142.5 677.5,142.5C 677.5,141.5 677.5,140.5 677.5,139.5C 675.5,139.5 673.5,139.5 671.5,139.5C 671.5,138.5 671.5,137.5 671.5,136.5C 670.5,136.5 669.5,136.5 668.5,136.5C 668.5,135.5 668.5,134.5 668.5,133.5C 667.5,133.5 666.5,133.5 665.5,133.5C 665.5,132.5 665.5,131.5 665.5,130.5C 663.5,130.5 661.5,130.5 659.5,130.5C 659.5,131.5 659.5,132.5 659.5,133.5C 658.5,133.5 657.5,133.5 656.5,133.5C 656.5,134.5 656.5,135.5 656.5,136.5C 654.5,136.5 652.5,136.5 650.5,136.5C 650.5,137.5 650.5,138.5 650.5,139.5C 648.5,139.5 646.5,139.5 644.5,139.5C 644.5,188.167 644.5,236.833 644.5,285.5C 645.5,285.5 646.5,285.5 647.5,285.5C 647.5,286.5 647.5,287.5 647.5,288.5C 649.5,288.5 651.5,288.5 653.5,288.5C 653.5,289.5 653.5,290.5 653.5,291.5C 655.5,291.5 657.5,291.5 659.5,291.5C 659.5,292.5 659.5,293.5 659.5,294.5C 661.5,294.5 663.5,294.5 665.5,294.5C 665.5,293.5 665.5,292.5 665.5,291.5C 666.5,291.5 667.5,291.5 668.5,291.5C 668.5,290.5 668.5,289.5 668.5,288.5C 670.5,288.5 672.5,288.5 674.5,288.5C 674.5,287.5 674.5,286.5 674.5,285.5C 675.833,285.5 677.167,285.5 678.5,285.5C 676.762,294.406 671.429,299.906 662.5,302C 659.146,302.455 655.813,302.955 652.5,303.5C 652.5,305.167 652.5,306.833 652.5,308.5C 674.833,308.5 697.167,308.5 719.5,308.5C 719.5,306.833 719.5,305.167 719.5,303.5C 712.682,303.359 706.348,301.525 700.5,298C 695.915,292.663 693.082,286.496 692,279.5C 690.372,236.862 690.039,194.195 691,151.5C 705.045,168.04 718.878,184.707 732.5,201.5C 732.5,225.5 732.5,249.5 732.5,273.5C 733.5,273.5 734.5,273.5 735.5,273.5C 735.5,275.5 735.5,277.5 735.5,279.5C 736.5,279.5 737.5,279.5 738.5,279.5C 738.5,280.5 738.5,281.5 738.5,282.5C 739.5,282.5 740.5,282.5 741.5,282.5C 741.5,283.5 741.5,284.5 741.5,285.5C 743.5,285.5 745.5,285.5 747.5,285.5C 747.5,286.5 747.5,287.5 747.5,288.5C 749.5,288.5 751.5,288.5 753.5,288.5C 753.5,290.5 753.5,292.5 753.5,294.5C 754.5,294.5 755.5,294.5 756.5,294.5C 756.5,300.833 756.5,307.167 756.5,313.5C 755.5,313.5 754.5,313.5 753.5,313.5C 753.5,315.5 753.5,317.5 753.5,319.5C 751.5,319.5 749.5,319.5 747.5,319.5C 747.5,320.5 747.5,321.5 747.5,322.5C 744.5,322.5 741.5,322.5 738.5,322.5C 738.5,323.5 738.5,324.5 738.5,325.5C 720.167,325.5 701.833,325.5 683.5,325.5C 683.5,324.5 683.5,323.5 683.5,322.5C 680.5,322.5 677.5,322.5 674.5,322.5C 674.5,321.5 674.5,320.5 674.5,319.5C 672.5,319.5 670.5,319.5 668.5,319.5C 668.5,318.5 668.5,317.5 668.5,316.5C 667.5,316.5 666.5,316.5 665.5,316.5C 665.5,315.5 665.5,314.5 665.5,313.5C 664.5,313.5 663.5,313.5 662.5,313.5C 662.5,314.5 662.5,315.5 662.5,316.5C 661.5,316.5 660.5,316.5 659.5,316.5C 659.5,317.5 659.5,318.5 659.5,319.5C 657.5,319.5 655.5,319.5 653.5,319.5C 653.5,320.5 653.5,321.5 653.5,322.5C 649.5,322.5 645.5,322.5 641.5,322.5C 641.5,323.5 641.5,324.5 641.5,325.5C 620.167,325.5 598.833,325.5 577.5,325.5C 577.5,324.5 577.5,323.5 577.5,322.5C 573.167,322.5 568.833,322.5 564.5,322.5C 564.5,321.5 564.5,320.5 564.5,319.5C 562.5,319.5 560.5,319.5 558.5,319.5C 558.5,318.5 558.5,317.5 558.5,316.5C 557.5,316.5 556.5,316.5 555.5,316.5C 555.5,313.833 555.5,311.167 555.5,308.5C 580.167,308.5 604.833,308.5 629.5,308.5C 629.5,306.833 629.5,305.167 629.5,303.5C 621.664,303.319 613.997,302.152 606.5,300C 602.217,296.162 600.05,291.329 600,285.5C 599.833,262 599.667,238.5 599.5,215C 599.362,189.466 599.862,163.966 601,138.5C 602.167,132 606,128.167 612.5,127C 617.785,125.974 623.118,125.307 628.5,125C 629.554,123.612 629.72,122.112 629,120.5C 604.553,120.606 580.053,120.272 555.5,119.5C 555.5,115.833 555.5,112.167 555.5,108.5C 556.5,108.5 557.5,108.5 558.5,108.5C 558.5,107.5 558.5,106.5 558.5,105.5C 560.5,105.5 562.5,105.5 564.5,105.5C 564.5,104.5 564.5,103.5 564.5,102.5C 568.833,102.5 573.167,102.5 577.5,102.5C 577.5,101.5 577.5,100.5 577.5,99.5C 598.833,99.5 620.167,99.5 641.5,99.5C 641.5,100.5 641.5,101.5 641.5,102.5C 645.5,102.5 649.5,102.5 653.5,102.5C 653.5,103.5 653.5,104.5 653.5,105.5C 655.5,105.5 657.5,105.5 659.5,105.5C 659.5,106.5 659.5,107.5 659.5,108.5C 662.5,108.5 665.5,108.5 668.5,108.5C 668.5,107.5 668.5,106.5 668.5,105.5C 670.5,105.5 672.5,105.5 674.5,105.5C 674.5,104.5 674.5,103.5 674.5,102.5C 677.5,102.5 680.5,102.5 683.5,102.5C 683.5,101.5 683.5,100.5 683.5,99.5C 697.833,99.5 712.167,99.5 726.5,99.5C 726.5,100.5 726.5,101.5 726.5,102.5C 730.5,102.5 734.5,102.5 738.5,102.5C 738.5,103.5 738.5,104.5 738.5,105.5C 739.5,105.5 740.5,105.5 741.5,105.5C 741.5,106.5 741.5,107.5 741.5,108.5C 743.5,108.5 745.5,108.5 747.5,108.5C 747.5,110.833 747.5,113.167 747.5,115.5C 748.5,115.5 749.5,115.5 750.5,115.5C 750.5,116.5 750.5,117.5 750.5,118.5C 751.5,118.5 752.5,118.5 753.5,118.5C 753.5,119.5 753.5,120.5 753.5,121.5C 754.5,121.5 755.5,121.5 756.5,121.5C 756.5,123.5 756.5,125.5 756.5,127.5C 757.833,127.5 759.167,127.5 760.5,127.5C 760.5,128.5 760.5,129.5 760.5,130.5C 761.5,130.5 762.5,130.5 763.5,130.5C 763.5,131.5 763.5,132.5 763.5,133.5C 764.5,133.5 765.5,133.5 766.5,133.5C 766.5,134.5 766.5,135.5 766.5,136.5C 767.5,136.5 768.5,136.5 769.5,136.5C 769.5,137.5 769.5,138.5 769.5,139.5C 770.5,139.5 771.5,139.5 772.5,139.5C 772.5,141.5 772.5,143.5 772.5,145.5C 773.5,145.5 774.5,145.5 775.5,145.5C 775.5,146.5 775.5,147.5 775.5,148.5C 776.5,148.5 777.5,148.5 778.5,148.5C 778.5,149.5 778.5,150.5 778.5,151.5C 779.5,151.5 780.5,151.5 781.5,151.5C 781.5,152.5 781.5,153.5 781.5,154.5C 782.5,154.5 783.5,154.5 784.5,154.5C 784.5,155.5 784.5,156.5 784.5,157.5C 785.5,157.5 786.5,157.5 787.5,157.5C 787.5,159.5 787.5,161.5 787.5,163.5C 788.5,163.5 789.5,163.5 790.5,163.5C 790.5,164.5 790.5,165.5 790.5,166.5C 791.5,166.5 792.5,166.5 793.5,166.5C 793.5,167.5 793.5,168.5 793.5,169.5C 794.5,169.5 795.5,169.5 796.5,169.5C 796.5,170.5 796.5,171.5 796.5,172.5C 797.5,172.5 798.5,172.5 799.5,172.5C 799.5,173.5 799.5,174.5 799.5,175.5C 800.5,175.5 801.5,175.5 802.5,175.5C 802.5,177.833 802.5,180.167 802.5,182.5C 803.5,182.5 804.5,182.5 805.5,182.5C 805.5,183.5 805.5,184.5 805.5,185.5C 806.5,185.5 807.5,185.5 808.5,185.5C 808.5,186.5 808.5,187.5 808.5,188.5C 809.5,188.5 810.5,188.5 811.5,188.5C 811.5,189.5 811.5,190.5 811.5,191.5C 812.5,191.5 813.5,191.5 814.5,191.5C 814.5,192.5 814.5,193.5 814.5,194.5C 815.5,194.5 816.5,194.5 817.5,194.5C 817.5,196.5 817.5,198.5 817.5,200.5C 818.5,200.5 819.5,200.5 820.5,200.5C 820.5,201.5 820.5,202.5 820.5,203.5C 821.833,203.5 823.167,203.5 824.5,203.5C 824.263,204.791 824.596,205.791 825.5,206.5 Z M 681.5,142.5 C 681.667,187.168 681.5,231.835 681,276.5C 680.594,279.742 679.761,282.742 678.5,285.5C 677.167,285.5 675.833,285.5 674.5,285.5C 674.5,286.5 674.5,287.5 674.5,288.5C 672.5,288.5 670.5,288.5 668.5,288.5C 668.5,289.5 668.5,290.5 668.5,291.5C 667.5,291.5 666.5,291.5 665.5,291.5C 665.5,292.5 665.5,293.5 665.5,294.5C 663.5,294.5 661.5,294.5 659.5,294.5C 659.5,293.5 659.5,292.5 659.5,291.5C 657.5,291.5 655.5,291.5 653.5,291.5C 653.5,290.5 653.5,289.5 653.5,288.5C 651.5,288.5 649.5,288.5 647.5,288.5C 647.5,287.5 647.5,286.5 647.5,285.5C 646.5,285.5 645.5,285.5 644.5,285.5C 644.5,236.833 644.5,188.167 644.5,139.5C 646.5,139.5 648.5,139.5 650.5,139.5C 650.5,138.5 650.5,137.5 650.5,136.5C 652.5,136.5 654.5,136.5 656.5,136.5C 656.5,135.5 656.5,134.5 656.5,133.5C 657.5,133.5 658.5,133.5 659.5,133.5C 659.5,132.5 659.5,131.5 659.5,130.5C 661.5,130.5 663.5,130.5 665.5,130.5C 665.5,131.5 665.5,132.5 665.5,133.5C 666.5,133.5 667.5,133.5 668.5,133.5C 668.5,134.5 668.5,135.5 668.5,136.5C 669.5,136.5 670.5,136.5 671.5,136.5C 671.5,137.5 671.5,138.5 671.5,139.5C 673.5,139.5 675.5,139.5 677.5,139.5C 677.5,140.5 677.5,141.5 677.5,142.5C 678.833,142.5 680.167,142.5 681.5,142.5 Z"/></g>
<g><path style="opacity:0.049" fill="#030304" d="M 903.5,308.5 C 928.075,308.828 952.575,308.494 977,307.5C 977.684,306.216 977.517,305.049 976.5,304C 969.027,303.263 961.694,301.929 954.5,300C 951.813,298.125 949.979,295.625 949,292.5C 947.856,266.539 947.356,240.539 947.5,214.5C 947.351,188.786 947.851,163.119 949,137.5C 949.7,133.934 951.533,131.1 954.5,129C 961.588,126.407 968.921,124.907 976.5,124.5C 977.833,123.167 977.833,121.833 976.5,120.5C 973.167,120.167 969.833,119.833 966.5,119.5C 939.834,120.684 913.168,120.684 886.5,119.5C 886.5,121.5 886.5,123.5 886.5,125.5C 894.966,124.744 902.966,126.244 910.5,130C 912.734,131.638 914.067,133.805 914.5,136.5C 912.952,136.179 912.285,135.179 912.5,133.5C 910.5,133.5 908.5,133.5 906.5,133.5C 906.5,132.5 906.5,131.5 906.5,130.5C 904.5,130.5 902.5,130.5 900.5,130.5C 900.5,131.5 900.5,132.5 900.5,133.5C 899.5,133.5 898.5,133.5 897.5,133.5C 897.5,134.5 897.5,135.5 897.5,136.5C 895.5,136.5 893.5,136.5 891.5,136.5C 891.5,137.5 891.5,138.5 891.5,139.5C 889.167,139.5 886.833,139.5 884.5,139.5C 884.5,140.5 884.5,141.5 884.5,142.5C 883.5,142.5 882.5,142.5 881.5,142.5C 881.5,143.5 881.5,144.5 881.5,145.5C 880.5,145.5 879.5,145.5 878.5,145.5C 878.5,148.5 878.5,151.5 878.5,154.5C 877.5,154.5 876.5,154.5 875.5,154.5C 875.5,205.5 875.5,256.5 875.5,307.5C 874.5,307.5 873.5,307.5 872.5,307.5C 872.5,310.5 872.5,313.5 872.5,316.5C 871.5,316.5 870.5,316.5 869.5,316.5C 869.5,317.5 869.5,318.5 869.5,319.5C 868.5,319.5 867.5,319.5 866.5,319.5C 866.5,320.5 866.5,321.5 866.5,322.5C 865.5,322.5 864.5,322.5 863.5,322.5C 863.5,323.5 863.5,324.5 863.5,325.5C 857.5,325.5 851.5,325.5 845.5,325.5C 845.5,324.5 845.5,323.5 845.5,322.5C 843.5,322.5 841.5,322.5 839.5,322.5C 839.5,321.5 839.5,320.5 839.5,319.5C 838.5,319.5 837.5,319.5 836.5,319.5C 836.5,318.5 836.5,317.5 836.5,316.5C 834.821,316.715 833.821,316.048 833.5,314.5C 834.329,260.904 834.829,207.237 835,153.5C 835.852,135.146 845.352,125.813 863.5,125.5C 863.5,123.5 863.5,121.5 863.5,119.5C 845.149,120.579 826.816,120.579 808.5,119.5C 808.5,116.833 808.5,114.167 808.5,111.5C 809.5,111.5 810.5,111.5 811.5,111.5C 811.5,109.5 811.5,107.5 811.5,105.5C 813.5,105.5 815.5,105.5 817.5,105.5C 817.5,104.5 817.5,103.5 817.5,102.5C 820.833,102.5 824.167,102.5 827.5,102.5C 827.5,101.5 827.5,100.5 827.5,99.5C 845.5,99.5 863.5,99.5 881.5,99.5C 881.5,100.5 881.5,101.5 881.5,102.5C 884.833,102.5 888.167,102.5 891.5,102.5C 891.5,103.5 891.5,104.5 891.5,105.5C 893.5,105.5 895.5,105.5 897.5,105.5C 897.5,106.5 897.5,107.5 897.5,108.5C 898.5,108.5 899.5,108.5 900.5,108.5C 900.5,109.5 900.5,110.5 900.5,111.5C 901.5,111.5 902.5,111.5 903.5,111.5C 903.5,110.5 903.5,109.5 903.5,108.5C 904.5,108.5 905.5,108.5 906.5,108.5C 906.5,107.5 906.5,106.5 906.5,105.5C 908.5,105.5 910.5,105.5 912.5,105.5C 912.5,104.5 912.5,103.5 912.5,102.5C 916.5,102.5 920.5,102.5 924.5,102.5C 924.5,101.5 924.5,100.5 924.5,99.5C 945.833,99.5 967.167,99.5 988.5,99.5C 988.5,100.5 988.5,101.5 988.5,102.5C 992.5,102.5 996.5,102.5 1000.5,102.5C 1000.5,103.5 1000.5,104.5 1000.5,105.5C 1002.5,105.5 1004.5,105.5 1006.5,105.5C 1006.5,106.5 1006.5,107.5 1006.5,108.5C 1007.5,108.5 1008.5,108.5 1009.5,108.5C 1009.5,115.833 1009.5,123.167 1009.5,130.5C 1008.5,130.5 1007.5,130.5 1006.5,130.5C 1006.5,131.5 1006.5,132.5 1006.5,133.5C 1005.5,133.5 1004.5,133.5 1003.5,133.5C 1003.5,134.5 1003.5,135.5 1003.5,136.5C 1001.5,136.5 999.5,136.5 997.5,136.5C 997.5,137.5 997.5,138.5 997.5,139.5C 995.5,139.5 993.5,139.5 991.5,139.5C 991.5,188.167 991.5,236.833 991.5,285.5C 992.5,285.5 993.5,285.5 994.5,285.5C 994.5,286.5 994.5,287.5 994.5,288.5C 996.5,288.5 998.5,288.5 1000.5,288.5C 1000.5,289.5 1000.5,290.5 1000.5,291.5C 1002.5,291.5 1004.5,291.5 1006.5,291.5C 1006.5,292.5 1006.5,293.5 1006.5,294.5C 1007.5,294.5 1008.5,294.5 1009.5,294.5C 1009.5,301.833 1009.5,309.167 1009.5,316.5C 1008.5,316.5 1007.5,316.5 1006.5,316.5C 1006.5,317.5 1006.5,318.5 1006.5,319.5C 1004.5,319.5 1002.5,319.5 1000.5,319.5C 1000.5,320.5 1000.5,321.5 1000.5,322.5C 996.5,322.5 992.5,322.5 988.5,322.5C 988.5,323.5 988.5,324.5 988.5,325.5C 967.167,325.5 945.833,325.5 924.5,325.5C 924.5,324.5 924.5,323.5 924.5,322.5C 920.5,322.5 916.5,322.5 912.5,322.5C 912.5,321.5 912.5,320.5 912.5,319.5C 910.5,319.5 908.5,319.5 906.5,319.5C 906.5,318.5 906.5,317.5 906.5,316.5C 905.5,316.5 904.5,316.5 903.5,316.5C 903.5,313.833 903.5,311.167 903.5,308.5 Z"/></g>
<g><path style="opacity:0.071" fill="#030304" d="M 1403.5,203.5 C 1403.5,212.5 1403.5,221.5 1403.5,230.5C 1403.83,241.679 1403.49,252.679 1402.5,263.5C 1367.88,221.706 1333.04,180.04 1298,138.5C 1294.2,132.403 1290.03,126.569 1285.5,121C 1271.93,119.536 1258.27,119.036 1244.5,119.5C 1244.5,116.833 1244.5,114.167 1244.5,111.5C 1245.5,111.5 1246.5,111.5 1247.5,111.5C 1247.5,109.5 1247.5,107.5 1247.5,105.5C 1249.5,105.5 1251.5,105.5 1253.5,105.5C 1253.5,104.5 1253.5,103.5 1253.5,102.5C 1256.5,102.5 1259.5,102.5 1262.5,102.5C 1262.5,101.5 1262.5,100.5 1262.5,99.5C 1276.83,99.5 1291.17,99.5 1305.5,99.5C 1305.5,100.5 1305.5,101.5 1305.5,102.5C 1309.5,102.5 1313.5,102.5 1317.5,102.5C 1317.5,103.5 1317.5,104.5 1317.5,105.5C 1318.5,105.5 1319.5,105.5 1320.5,105.5C 1320.5,106.5 1320.5,107.5 1320.5,108.5C 1322.5,108.5 1324.5,108.5 1326.5,108.5C 1326.5,110.833 1326.5,113.167 1326.5,115.5C 1327.5,115.5 1328.5,115.5 1329.5,115.5C 1329.5,116.5 1329.5,117.5 1329.5,118.5C 1330.83,118.5 1332.17,118.5 1333.5,118.5C 1333.5,119.5 1333.5,120.5 1333.5,121.5C 1334.5,121.5 1335.5,121.5 1336.5,121.5C 1336.5,123.5 1336.5,125.5 1336.5,127.5C 1337.5,127.5 1338.5,127.5 1339.5,127.5C 1339.5,128.5 1339.5,129.5 1339.5,130.5C 1340.5,130.5 1341.5,130.5 1342.5,130.5C 1342.5,131.5 1342.5,132.5 1342.5,133.5C 1343.5,133.5 1344.5,133.5 1345.5,133.5C 1345.5,134.5 1345.5,135.5 1345.5,136.5C 1346.5,136.5 1347.5,136.5 1348.5,136.5C 1348.5,137.5 1348.5,138.5 1348.5,139.5C 1349.5,139.5 1350.5,139.5 1351.5,139.5C 1351.5,141.5 1351.5,143.5 1351.5,145.5C 1352.5,145.5 1353.5,145.5 1354.5,145.5C 1354.5,146.5 1354.5,147.5 1354.5,148.5C 1355.5,148.5 1356.5,148.5 1357.5,148.5C 1357.5,149.5 1357.5,150.5 1357.5,151.5C 1358.5,151.5 1359.5,151.5 1360.5,151.5C 1360.5,152.5 1360.5,153.5 1360.5,154.5C 1361.5,154.5 1362.5,154.5 1363.5,154.5C 1363.5,155.5 1363.5,156.5 1363.5,157.5C 1364.5,157.5 1365.5,157.5 1366.5,157.5C 1366.5,159.5 1366.5,161.5 1366.5,163.5C 1367.5,163.5 1368.5,163.5 1369.5,163.5C 1369.5,164.5 1369.5,165.5 1369.5,166.5C 1370.5,166.5 1371.5,166.5 1372.5,166.5C 1372.5,167.5 1372.5,168.5 1372.5,169.5C 1373.5,169.5 1374.5,169.5 1375.5,169.5C 1375.5,170.5 1375.5,171.5 1375.5,172.5C 1376.5,172.5 1377.5,172.5 1378.5,172.5C 1378.5,173.5 1378.5,174.5 1378.5,175.5C 1379.5,175.5 1380.5,175.5 1381.5,175.5C 1381.5,177.833 1381.5,180.167 1381.5,182.5C 1382.5,182.5 1383.5,182.5 1384.5,182.5C 1384.5,183.5 1384.5,184.5 1384.5,185.5C 1385.5,185.5 1386.5,185.5 1387.5,185.5C 1387.5,186.5 1387.5,187.5 1387.5,188.5C 1388.5,188.5 1389.5,188.5 1390.5,188.5C 1390.5,189.5 1390.5,190.5 1390.5,191.5C 1391.5,191.5 1392.5,191.5 1393.5,191.5C 1393.5,192.5 1393.5,193.5 1393.5,194.5C 1394.83,194.5 1396.17,194.5 1397.5,194.5C 1397.5,196.5 1397.5,198.5 1397.5,200.5C 1398.5,200.5 1399.5,200.5 1400.5,200.5C 1400.5,201.5 1400.5,202.5 1400.5,203.5C 1401.5,203.5 1402.5,203.5 1403.5,203.5 Z"/></g>
<g><path style="opacity:0.036" fill="#030304" d="M 1412.5,314.5 C 1412.04,259.812 1412.54,205.145 1414,150.5C 1416.24,133.759 1425.74,125.425 1442.5,125.5C 1442.5,123.5 1442.5,121.5 1442.5,119.5C 1424.15,120.579 1405.82,120.579 1387.5,119.5C 1387.5,116.833 1387.5,114.167 1387.5,111.5C 1388.5,111.5 1389.5,111.5 1390.5,111.5C 1390.5,109.5 1390.5,107.5 1390.5,105.5C 1392.83,105.5 1395.17,105.5 1397.5,105.5C 1397.5,104.5 1397.5,103.5 1397.5,102.5C 1400.5,102.5 1403.5,102.5 1406.5,102.5C 1406.5,101.5 1406.5,100.5 1406.5,99.5C 1424.83,99.5 1443.17,99.5 1461.5,99.5C 1461.5,100.5 1461.5,101.5 1461.5,102.5C 1464.5,102.5 1467.5,102.5 1470.5,102.5C 1470.5,103.5 1470.5,104.5 1470.5,105.5C 1472.5,105.5 1474.5,105.5 1476.5,105.5C 1476.5,107.5 1476.5,109.5 1476.5,111.5C 1477.5,111.5 1478.5,111.5 1479.5,111.5C 1479.5,117.833 1479.5,124.167 1479.5,130.5C 1478.5,130.5 1477.5,130.5 1476.5,130.5C 1476.5,132.5 1476.5,134.5 1476.5,136.5C 1474.5,136.5 1472.5,136.5 1470.5,136.5C 1470.5,137.5 1470.5,138.5 1470.5,139.5C 1468.5,139.5 1466.5,139.5 1464.5,139.5C 1464.5,140.5 1464.5,141.5 1464.5,142.5C 1463.5,142.5 1462.5,142.5 1461.5,142.5C 1461.5,143.5 1461.5,144.5 1461.5,145.5C 1460.17,145.5 1458.83,145.5 1457.5,145.5C 1457.5,148.5 1457.5,151.5 1457.5,154.5C 1456.5,154.5 1455.5,154.5 1454.5,154.5C 1454.5,205.5 1454.5,256.5 1454.5,307.5C 1453.5,307.5 1452.5,307.5 1451.5,307.5C 1451.5,310.5 1451.5,313.5 1451.5,316.5C 1450.5,316.5 1449.5,316.5 1448.5,316.5C 1448.5,317.5 1448.5,318.5 1448.5,319.5C 1447.5,319.5 1446.5,319.5 1445.5,319.5C 1445.5,320.5 1445.5,321.5 1445.5,322.5C 1444.5,322.5 1443.5,322.5 1442.5,322.5C 1442.5,323.5 1442.5,324.5 1442.5,325.5C 1436.5,325.5 1430.5,325.5 1424.5,325.5C 1424.5,324.5 1424.5,323.5 1424.5,322.5C 1422.5,322.5 1420.5,322.5 1418.5,322.5C 1418.5,321.5 1418.5,320.5 1418.5,319.5C 1417.5,319.5 1416.5,319.5 1415.5,319.5C 1415.5,318.5 1415.5,317.5 1415.5,316.5C 1413.82,316.715 1412.82,316.048 1412.5,314.5 Z"/></g>
<g><path style="opacity:0.983" fill="#5c5f6c" d="M 1058.5,304.5 C 1057.61,303.89 1056.61,303.557 1055.5,303.5C 1054.71,302.599 1053.71,301.932 1052.5,301.5C 1020.8,281.611 1004.8,252.778 1004.5,215C 1004.79,179.237 1019.79,151.737 1049.5,132.5C 1051.03,132.573 1052.03,131.906 1052.5,130.5C 1066.1,123.579 1080.43,118.746 1095.5,116C 1139.29,109.82 1172.79,125.32 1196,162.5C 1219,211.312 1210.5,253.812 1170.5,290C 1135.89,315.635 1098.55,320.468 1058.5,304.5 Z M 1147.5,145.5 C 1147.5,146.5 1147.5,147.5 1147.5,148.5C 1148.5,148.5 1149.5,148.5 1150.5,148.5C 1163.14,164.541 1170.64,182.874 1173,203.5C 1175.03,222.056 1173.7,240.389 1169,258.5C 1166.94,264.954 1164.1,270.954 1160.5,276.5C 1159.17,276.5 1157.83,276.5 1156.5,276.5C 1156.5,277.5 1156.5,278.5 1156.5,279.5C 1154.5,279.5 1152.5,279.5 1150.5,279.5C 1150.5,280.5 1150.5,281.5 1150.5,282.5C 1141.17,282.5 1131.83,282.5 1122.5,282.5C 1122.5,281.5 1122.5,280.5 1122.5,279.5C 1119.5,279.5 1116.5,279.5 1113.5,279.5C 1113.5,278.5 1113.5,277.5 1113.5,276.5C 1112.5,276.5 1111.5,276.5 1110.5,276.5C 1110.5,275.5 1110.5,274.5 1110.5,273.5C 1108.5,273.5 1106.5,273.5 1104.5,273.5C 1104.5,272.5 1104.5,271.5 1104.5,270.5C 1103.5,270.5 1102.5,270.5 1101.5,270.5C 1101.5,268.5 1101.5,266.5 1101.5,264.5C 1100.5,264.5 1099.5,264.5 1098.5,264.5C 1098.5,263.5 1098.5,262.5 1098.5,261.5C 1097.5,261.5 1096.5,261.5 1095.5,261.5C 1095.5,259.5 1095.5,257.5 1095.5,255.5C 1094.5,255.5 1093.5,255.5 1092.5,255.5C 1092.5,253.5 1092.5,251.5 1092.5,249.5C 1091.5,249.5 1090.5,249.5 1089.5,249.5C 1089.5,247.5 1089.5,245.5 1089.5,243.5C 1088.5,243.5 1087.5,243.5 1086.5,243.5C 1086.5,240.167 1086.5,236.833 1086.5,233.5C 1085.5,233.5 1084.5,233.5 1083.5,233.5C 1083.5,227.5 1083.5,221.5 1083.5,215.5C 1082.5,215.5 1081.5,215.5 1080.5,215.5C 1080.5,207.5 1080.5,199.5 1080.5,191.5C 1081.5,191.5 1082.5,191.5 1083.5,191.5C 1083.5,185.167 1083.5,178.833 1083.5,172.5C 1084.5,172.5 1085.5,172.5 1086.5,172.5C 1086.5,169.5 1086.5,166.5 1086.5,163.5C 1087.5,163.5 1088.5,163.5 1089.5,163.5C 1089.5,162.5 1089.5,161.5 1089.5,160.5C 1090.5,160.5 1091.5,160.5 1092.5,160.5C 1092.5,158.5 1092.5,156.5 1092.5,154.5C 1093.5,154.5 1094.5,154.5 1095.5,154.5C 1095.5,153.5 1095.5,152.5 1095.5,151.5C 1096.5,151.5 1097.5,151.5 1098.5,151.5C 1098.5,150.5 1098.5,149.5 1098.5,148.5C 1100.5,148.5 1102.5,148.5 1104.5,148.5C 1104.5,147.5 1104.5,146.5 1104.5,145.5C 1106.5,145.5 1108.5,145.5 1110.5,145.5C 1110.5,144.5 1110.5,143.5 1110.5,142.5C 1120.5,142.5 1130.5,142.5 1140.5,142.5C 1140.5,143.5 1140.5,144.5 1140.5,145.5C 1142.83,145.5 1145.17,145.5 1147.5,145.5 Z"/></g>
<g><path style="opacity:0.98" fill="#5c5f6c" d="M 470.5,200.5 C 477.865,180.71 476.865,161.377 467.5,142.5C 458.515,130.715 446.515,125.048 431.5,125.5C 418.709,123.474 411.542,128.807 410,141.5C 409.333,189.5 409.333,237.5 410,285.5C 410.453,292.583 413.953,297.417 420.5,300C 429.7,302.106 439.034,303.273 448.5,303.5C 448.5,305.167 448.5,306.833 448.5,308.5C 421.167,308.5 393.833,308.5 366.5,308.5C 360.833,308.5 355.167,308.5 349.5,308.5C 349.5,306.833 349.5,305.167 349.5,303.5C 355.206,303.03 360.873,302.363 366.5,301.5C 373.416,299.917 377.083,295.584 377.5,288.5C 378.83,238.931 378.83,189.264 377.5,139.5C 376.054,131.722 371.388,127.388 363.5,126.5C 359.566,125.64 355.566,125.307 351.5,125.5C 350.508,125.672 349.842,125.338 349.5,124.5C 349.5,122.833 349.5,121.167 349.5,119.5C 354.167,119.5 358.833,119.5 363.5,119.5C 372.482,120.071 381.482,120.404 390.5,120.5C 412.478,119.002 434.478,118.502 456.5,119C 474.622,119.481 489.789,126.315 502,139.5C 513.253,161.868 511.587,183.201 497,203.5C 478.357,222.159 455.857,229.659 429.5,226C 425.96,225.671 424.794,223.838 426,220.5C 430.269,219.375 434.603,219.375 439,220.5C 453.311,219.665 463.811,212.998 470.5,200.5 Z M 467.5,142.5 C 476.865,161.377 477.865,180.71 470.5,200.5C 465.5,200.5 460.5,200.5 455.5,200.5C 455.5,181.167 455.5,161.833 455.5,142.5C 459.5,142.5 463.5,142.5 467.5,142.5 Z"/></g>
<g><path style="opacity:0.975" fill="#5c5f6c" d="M 555.5,119.5 C 580.053,120.272 604.553,120.606 629,120.5C 629.72,122.112 629.554,123.612 628.5,125C 623.118,125.307 617.785,125.974 612.5,127C 606,128.167 602.167,132 601,138.5C 599.862,163.966 599.362,189.466 599.5,215C 599.667,238.5 599.833,262 600,285.5C 600.05,291.329 602.217,296.162 606.5,300C 613.997,302.152 621.664,303.319 629.5,303.5C 629.5,305.167 629.5,306.833 629.5,308.5C 604.833,308.5 580.167,308.5 555.5,308.5C 549.833,308.5 544.167,308.5 538.5,308.5C 538.5,306.833 538.5,305.167 538.5,303.5C 544.249,303.159 549.916,302.493 555.5,301.5C 562.964,300.369 566.964,296.036 567.5,288.5C 568.661,239.237 568.828,189.904 568,140.5C 567.79,138.942 567.29,137.609 566.5,136.5C 564.756,131.09 561.089,127.757 555.5,126.5C 550.527,125.836 545.527,125.503 540.5,125.5C 539.508,125.672 538.842,125.338 538.5,124.5C 538.5,122.833 538.5,121.167 538.5,119.5C 544.167,119.5 549.833,119.5 555.5,119.5 Z"/></g>
<g><path style="opacity:0.967" fill="#5c5f6c" d="M 825.5,206.5 C 825.667,191.163 825.5,175.83 825,160.5C 824.662,155.453 823.995,150.453 823,145.5C 822.76,143.148 821.927,141.148 820.5,139.5C 818.833,133.167 814.833,129.167 808.5,127.5C 804.79,125.864 800.79,125.198 796.5,125.5C 796.5,123.5 796.5,121.5 796.5,119.5C 800.5,119.5 804.5,119.5 808.5,119.5C 826.816,120.579 845.149,120.579 863.5,119.5C 863.5,121.5 863.5,123.5 863.5,125.5C 845.352,125.813 835.852,135.146 835,153.5C 834.829,207.237 834.329,260.904 833.5,314.5C 829.727,315.178 826.894,313.844 825,310.5C 794.677,273.682 763.844,237.348 732.5,201.5C 718.878,184.707 705.045,168.04 691,151.5C 690.039,194.195 690.372,236.862 692,279.5C 693.082,286.496 695.915,292.663 700.5,298C 706.348,301.525 712.682,303.359 719.5,303.5C 719.5,305.167 719.5,306.833 719.5,308.5C 697.167,308.5 674.833,308.5 652.5,308.5C 652.5,306.833 652.5,305.167 652.5,303.5C 655.813,302.955 659.146,302.455 662.5,302C 671.429,299.906 676.762,294.406 678.5,285.5C 679.761,282.742 680.594,279.742 681,276.5C 681.5,231.835 681.667,187.168 681.5,142.5C 674.263,132.208 664.263,126.542 651.5,125.5C 651.5,123.5 651.5,121.5 651.5,119.5C 669.927,119.026 688.26,119.526 706.5,121C 711.699,127.232 716.532,133.732 721,140.5C 755.667,181.833 790.333,223.167 825,264.5C 825.5,245.17 825.667,225.836 825.5,206.5 Z"/></g>
<g><path style="opacity:0.986" fill="#5c5f6c" d="M 903.5,308.5 C 897.833,308.5 892.167,308.5 886.5,308.5C 886.5,306.833 886.5,305.167 886.5,303.5C 892.239,303.07 897.905,302.404 903.5,301.5C 910.897,300.41 914.897,296.076 915.5,288.5C 916.652,240.195 916.819,191.862 916,143.5C 915.71,141.08 915.21,138.746 914.5,136.5C 914.067,133.805 912.734,131.638 910.5,130C 902.966,126.244 894.966,124.744 886.5,125.5C 886.5,123.5 886.5,121.5 886.5,119.5C 913.168,120.684 939.834,120.684 966.5,119.5C 969.833,119.833 973.167,120.167 976.5,120.5C 977.833,121.833 977.833,123.167 976.5,124.5C 968.921,124.907 961.588,126.407 954.5,129C 951.533,131.1 949.7,133.934 949,137.5C 947.851,163.119 947.351,188.786 947.5,214.5C 947.356,240.539 947.856,266.539 949,292.5C 949.979,295.625 951.813,298.125 954.5,300C 961.694,301.929 969.027,303.263 976.5,304C 977.517,305.049 977.684,306.216 977,307.5C 952.575,308.494 928.075,308.828 903.5,308.5 Z"/></g>
<g><path style="opacity:0.964" fill="#5c5f6c" d="M 1244.5,119.5 C 1258.27,119.036 1271.93,119.536 1285.5,121C 1290.03,126.569 1294.2,132.403 1298,138.5C 1333.04,180.04 1367.88,221.706 1402.5,263.5C 1402.56,264.043 1402.89,264.376 1403.5,264.5C 1404.82,253.007 1404.82,241.674 1403.5,230.5C 1403.5,221.5 1403.5,212.5 1403.5,203.5C 1403.67,186.497 1403.5,169.497 1403,152.5C 1402.59,147.843 1401.42,143.509 1399.5,139.5C 1397.5,133.5 1393.5,129.5 1387.5,127.5C 1383.65,126.161 1379.65,125.328 1375.5,125C 1374.17,123.333 1374.17,121.667 1375.5,120C 1379.49,119.501 1383.49,119.334 1387.5,119.5C 1405.82,120.579 1424.15,120.579 1442.5,119.5C 1442.5,121.5 1442.5,123.5 1442.5,125.5C 1425.74,125.425 1416.24,133.759 1414,150.5C 1412.54,205.145 1412.04,259.812 1412.5,314.5C 1410.4,314.799 1408.4,314.466 1406.5,313.5C 1374.78,276.122 1343.11,238.789 1311.5,201.5C 1297.88,184.707 1284.04,168.04 1270,151.5C 1269.03,194.866 1269.37,238.199 1271,281.5C 1273.77,296.767 1282.94,304.101 1298.5,303.5C 1298.5,305.167 1298.5,306.833 1298.5,308.5C 1280.5,308.5 1262.5,308.5 1244.5,308.5C 1239.83,308.5 1235.17,308.5 1230.5,308.5C 1230.5,306.833 1230.5,305.167 1230.5,303.5C 1235.45,303.23 1240.12,302.23 1244.5,300.5C 1251.3,297.696 1255.63,292.696 1257.5,285.5C 1258.84,281.646 1259.67,277.646 1260,273.5C 1260.5,229.835 1260.67,186.168 1260.5,142.5C 1256.87,137.871 1252.53,133.871 1247.5,130.5C 1242.3,127.441 1236.63,125.441 1230.5,124.5C 1229.17,123.167 1229.17,121.833 1230.5,120.5C 1235.12,119.507 1239.79,119.173 1244.5,119.5 Z"/></g>
<g><path style="opacity:0.068" fill="#030304" d="M 1147.5,145.5 C 1145.17,145.5 1142.83,145.5 1140.5,145.5C 1140.5,144.5 1140.5,143.5 1140.5,142.5C 1130.5,142.5 1120.5,142.5 1110.5,142.5C 1110.5,143.5 1110.5,144.5 1110.5,145.5C 1108.5,145.5 1106.5,145.5 1104.5,145.5C 1104.5,146.5 1104.5,147.5 1104.5,148.5C 1102.5,148.5 1100.5,148.5 1098.5,148.5C 1098.5,149.5 1098.5,150.5 1098.5,151.5C 1097.5,151.5 1096.5,151.5 1095.5,151.5C 1095.5,152.5 1095.5,153.5 1095.5,154.5C 1094.5,154.5 1093.5,154.5 1092.5,154.5C 1092.5,156.5 1092.5,158.5 1092.5,160.5C 1091.5,160.5 1090.5,160.5 1089.5,160.5C 1089.5,161.5 1089.5,162.5 1089.5,163.5C 1088.5,163.5 1087.5,163.5 1086.5,163.5C 1086.5,166.5 1086.5,169.5 1086.5,172.5C 1085.5,172.5 1084.5,172.5 1083.5,172.5C 1083.5,178.833 1083.5,185.167 1083.5,191.5C 1082.5,191.5 1081.5,191.5 1080.5,191.5C 1080.5,199.5 1080.5,207.5 1080.5,215.5C 1081.5,215.5 1082.5,215.5 1083.5,215.5C 1083.5,221.5 1083.5,227.5 1083.5,233.5C 1084.5,233.5 1085.5,233.5 1086.5,233.5C 1086.5,236.833 1086.5,240.167 1086.5,243.5C 1087.5,243.5 1088.5,243.5 1089.5,243.5C 1089.5,245.5 1089.5,247.5 1089.5,249.5C 1090.5,249.5 1091.5,249.5 1092.5,249.5C 1092.5,251.5 1092.5,253.5 1092.5,255.5C 1093.5,255.5 1094.5,255.5 1095.5,255.5C 1095.5,257.5 1095.5,259.5 1095.5,261.5C 1096.5,261.5 1097.5,261.5 1098.5,261.5C 1098.5,262.5 1098.5,263.5 1098.5,264.5C 1099.5,264.5 1100.5,264.5 1101.5,264.5C 1101.5,266.5 1101.5,268.5 1101.5,270.5C 1102.5,270.5 1103.5,270.5 1104.5,270.5C 1104.5,271.5 1104.5,272.5 1104.5,273.5C 1106.5,273.5 1108.5,273.5 1110.5,273.5C 1110.5,274.5 1110.5,275.5 1110.5,276.5C 1111.5,276.5 1112.5,276.5 1113.5,276.5C 1113.5,277.5 1113.5,278.5 1113.5,279.5C 1116.5,279.5 1119.5,279.5 1122.5,279.5C 1122.5,280.5 1122.5,281.5 1122.5,282.5C 1131.83,282.5 1141.17,282.5 1150.5,282.5C 1150.5,281.5 1150.5,280.5 1150.5,279.5C 1152.5,279.5 1154.5,279.5 1156.5,279.5C 1156.5,278.5 1156.5,277.5 1156.5,276.5C 1157.83,276.5 1159.17,276.5 1160.5,276.5C 1145.95,299.197 1125.28,308.031 1098.5,303C 1085.77,300.056 1074.94,293.889 1066,284.5C 1049.54,264.558 1040.54,241.558 1039,215.5C 1036.65,192.602 1040.65,170.935 1051,150.5C 1066.37,128.914 1087.2,120.747 1113.5,126C 1127.16,128.658 1138.5,135.158 1147.5,145.5 Z"/></g>
<g><path style="opacity:0.004" fill="#020303" d="M 363.5,126.5 C 371.388,127.388 376.054,131.722 377.5,139.5C 375.833,139.5 374.167,139.5 372.5,139.5C 372.5,138.5 372.5,137.5 372.5,136.5C 370.5,136.5 368.5,136.5 366.5,136.5C 366.5,134.5 366.5,132.5 366.5,130.5C 365.5,130.5 364.5,130.5 363.5,130.5C 363.5,129.167 363.5,127.833 363.5,126.5 Z"/></g>
<g><path style="opacity:0.004" fill="#020303" d="M 555.5,126.5 C 561.089,127.757 564.756,131.09 566.5,136.5C 564.952,136.179 564.285,135.179 564.5,133.5C 562.5,133.5 560.5,133.5 558.5,133.5C 558.5,132.5 558.5,131.5 558.5,130.5C 557.5,130.5 556.5,130.5 555.5,130.5C 555.5,129.167 555.5,127.833 555.5,126.5 Z"/></g>
<g><path style="opacity:0.004" fill="#020303" d="M 808.5,127.5 C 814.833,129.167 818.833,133.167 820.5,139.5C 819.5,139.5 818.5,139.5 817.5,139.5C 817.5,138.5 817.5,137.5 817.5,136.5C 815.5,136.5 813.5,136.5 811.5,136.5C 811.5,134.5 811.5,132.5 811.5,130.5C 810.5,130.5 809.5,130.5 808.5,130.5C 808.5,129.5 808.5,128.5 808.5,127.5 Z"/></g>
<g><path style="opacity:0.004" fill="#020303" d="M 1387.5,127.5 C 1393.5,129.5 1397.5,133.5 1399.5,139.5C 1397.95,139.179 1397.29,138.179 1397.5,136.5C 1395.17,136.5 1392.83,136.5 1390.5,136.5C 1390.5,134.5 1390.5,132.5 1390.5,130.5C 1389.5,130.5 1388.5,130.5 1387.5,130.5C 1387.5,129.5 1387.5,128.5 1387.5,127.5 Z"/></g>
<g><path style="opacity:0.004" fill="#020303" d="M 1052.5,130.5 C 1052.03,131.906 1051.03,132.573 1049.5,132.5C 1049.82,130.952 1050.82,130.285 1052.5,130.5 Z"/></g>
<g><path style="opacity:0.004" fill="#020303" d="M 1247.5,130.5 C 1252.53,133.871 1256.87,137.871 1260.5,142.5C 1259.17,142.5 1257.83,142.5 1256.5,142.5C 1256.5,141.5 1256.5,140.5 1256.5,139.5C 1254.5,139.5 1252.5,139.5 1250.5,139.5C 1250.5,138.5 1250.5,137.5 1250.5,136.5C 1249.5,136.5 1248.5,136.5 1247.5,136.5C 1247.5,134.5 1247.5,132.5 1247.5,130.5 Z"/></g>
<g><path style="opacity:0.925" fill="#090911" d="M 129.5,139.5 C 137.196,139.169 144.862,139.503 152.5,140.5C 149.856,141.396 147.19,142.229 144.5,143C 143.773,144.399 143.273,145.899 143,147.5C 142.034,168.564 142.368,189.564 144,210.5C 144.75,211.126 145.584,211.626 146.5,212C 154.232,212.856 161.898,212.523 169.5,211C 175.544,207.411 179.544,202.245 181.5,195.5C 182.426,202.483 182.426,209.483 181.5,216.5C 166.167,216.5 150.833,216.5 135.5,216.5C 130.639,216.937 125.972,216.437 121.5,215C 124.785,214.106 127.951,212.939 131,211.5C 132.108,207.914 132.608,204.247 132.5,200.5C 132.667,182.83 132.5,165.164 132,147.5C 131.901,145.347 131.067,143.681 129.5,142.5C 119.115,140.468 119.115,139.468 129.5,139.5 Z"/></g>
<g><path style="opacity:0.004" fill="#020303" d="M 1147.5,145.5 C 1148.83,146.167 1149.83,147.167 1150.5,148.5C 1149.5,148.5 1148.5,148.5 1147.5,148.5C 1147.5,147.5 1147.5,146.5 1147.5,145.5 Z"/></g>
<g><path style="opacity:0.027" fill="#030304" d="M 1311.5,201.5 C 1311.5,225.5 1311.5,249.5 1311.5,273.5C 1312.5,273.5 1313.5,273.5 1314.5,273.5C 1314.5,275.5 1314.5,277.5 1314.5,279.5C 1315.5,279.5 1316.5,279.5 1317.5,279.5C 1317.5,280.5 1317.5,281.5 1317.5,282.5C 1318.5,282.5 1319.5,282.5 1320.5,282.5C 1320.5,283.5 1320.5,284.5 1320.5,285.5C 1322.5,285.5 1324.5,285.5 1326.5,285.5C 1326.5,286.5 1326.5,287.5 1326.5,288.5C 1328.83,288.5 1331.17,288.5 1333.5,288.5C 1333.5,290.5 1333.5,292.5 1333.5,294.5C 1334.5,294.5 1335.5,294.5 1336.5,294.5C 1336.5,300.833 1336.5,307.167 1336.5,313.5C 1335.5,313.5 1334.5,313.5 1333.5,313.5C 1333.5,315.5 1333.5,317.5 1333.5,319.5C 1331.17,319.5 1328.83,319.5 1326.5,319.5C 1326.5,320.5 1326.5,321.5 1326.5,322.5C 1323.5,322.5 1320.5,322.5 1317.5,322.5C 1317.5,323.5 1317.5,324.5 1317.5,325.5C 1299.17,325.5 1280.83,325.5 1262.5,325.5C 1262.5,324.5 1262.5,323.5 1262.5,322.5C 1259.5,322.5 1256.5,322.5 1253.5,322.5C 1253.5,321.5 1253.5,320.5 1253.5,319.5C 1251.5,319.5 1249.5,319.5 1247.5,319.5C 1247.5,317.5 1247.5,315.5 1247.5,313.5C 1246.5,313.5 1245.5,313.5 1244.5,313.5C 1244.5,311.833 1244.5,310.167 1244.5,308.5C 1262.5,308.5 1280.5,308.5 1298.5,308.5C 1298.5,306.833 1298.5,305.167 1298.5,303.5C 1282.94,304.101 1273.77,296.767 1271,281.5C 1269.37,238.199 1269.03,194.866 1270,151.5C 1284.04,168.04 1297.88,184.707 1311.5,201.5 Z"/></g>
<g><path style="opacity:0.844" fill="#090a12" d="M 216.5,155.5 C 217.75,155.577 218.583,156.244 219,157.5C 226.667,173.833 234.333,190.167 242,206.5C 244.464,211.311 248.297,214.144 253.5,215C 251.712,216.088 249.712,216.588 247.5,216.5C 240.14,215.732 232.806,215.399 225.5,215.5C 227.861,214.142 230.194,212.642 232.5,211C 229.352,203.874 226.352,196.707 223.5,189.5C 217.833,189.5 212.167,189.5 206.5,189.5C 204.228,195.72 202.228,202.053 200.5,208.5C 200.57,209.772 200.903,210.938 201.5,212C 204.014,213.252 206.68,213.752 209.5,213.5C 209.5,214.5 209.5,215.5 209.5,216.5C 200.833,215.167 192.167,215.167 183.5,216.5C 183.5,215.5 183.5,214.5 183.5,213.5C 188.194,214.3 191.694,212.633 194,208.5C 201.8,190.927 209.3,173.26 216.5,155.5 Z M 213.5,172.5 C 212.167,176.833 210.833,181.167 209.5,185.5C 213.226,185.823 216.893,185.489 220.5,184.5C 218.614,180.036 216.281,176.036 213.5,172.5 Z"/></g>
<g><path style="opacity:0.35" fill="#41454f" d="M 1403.5,230.5 C 1404.82,241.674 1404.82,253.007 1403.5,264.5C 1402.89,264.376 1402.56,264.043 1402.5,263.5C 1403.49,252.679 1403.83,241.679 1403.5,230.5 Z"/></g>
<g><path style="opacity:0.004" fill="#020303" d="M 259.5,267.5 C 259.167,268.5 258.5,269.167 257.5,269.5C 257.5,268.167 258.167,267.5 259.5,267.5 Z"/></g>
<g><path style="opacity:0.004" fill="#020303" d="M 1257.5,285.5 C 1255.63,292.696 1251.3,297.696 1244.5,300.5C 1244.5,298.5 1244.5,296.5 1244.5,294.5C 1245.5,294.5 1246.5,294.5 1247.5,294.5C 1247.5,292.5 1247.5,290.5 1247.5,288.5C 1249.5,288.5 1251.5,288.5 1253.5,288.5C 1253.5,287.5 1253.5,286.5 1253.5,285.5C 1254.83,285.5 1256.17,285.5 1257.5,285.5 Z"/></g>
<g><path style="opacity:0.004" fill="#020303" d="M 377.5,288.5 C 377.083,295.584 373.416,299.917 366.5,301.5C 366.5,299.167 366.5,296.833 366.5,294.5C 367.5,294.5 368.5,294.5 369.5,294.5C 369.5,293.5 369.5,292.5 369.5,291.5C 371.5,291.5 373.5,291.5 375.5,291.5C 375.285,289.821 375.952,288.821 377.5,288.5 Z"/></g>
<g><path style="opacity:0.004" fill="#020303" d="M 567.5,288.5 C 566.964,296.036 562.964,300.369 555.5,301.5C 555.5,299.167 555.5,296.833 555.5,294.5C 556.5,294.5 557.5,294.5 558.5,294.5C 558.5,293.5 558.5,292.5 558.5,291.5C 560.5,291.5 562.5,291.5 564.5,291.5C 564.5,290.5 564.5,289.5 564.5,288.5C 565.5,288.5 566.5,288.5 567.5,288.5 Z"/></g>
<g><path style="opacity:0.004" fill="#020303" d="M 915.5,288.5 C 914.897,296.076 910.897,300.41 903.5,301.5C 903.5,299.167 903.5,296.833 903.5,294.5C 904.5,294.5 905.5,294.5 906.5,294.5C 906.5,293.5 906.5,292.5 906.5,291.5C 908.5,291.5 910.5,291.5 912.5,291.5C 912.5,290.5 912.5,289.5 912.5,288.5C 913.5,288.5 914.5,288.5 915.5,288.5 Z"/></g>
<g><path style="opacity:0.004" fill="#020303" d="M 107.5,295.5 C 108.71,295.932 109.71,296.599 110.5,297.5C 108.821,297.715 107.821,297.048 107.5,295.5 Z"/></g>
<g><path style="opacity:0.004" fill="#020303" d="M 1052.5,301.5 C 1053.71,301.932 1054.71,302.599 1055.5,303.5C 1053.82,303.715 1052.82,303.048 1052.5,301.5 Z"/></g>
<g><path style="opacity:0.969" fill="#be9a57" d="M 349.5,342.5 C 714.167,342.5 1078.83,342.5 1443.5,342.5C 1443.5,345.167 1443.5,347.833 1443.5,350.5C 1078.83,350.5 714.167,350.5 349.5,350.5C 349.5,347.833 349.5,345.167 349.5,342.5 Z"/></g>
<g><path style="opacity:0.815" fill="#090a12" d="M 860.5,378.5 C 861.289,378.783 861.956,379.283 862.5,380C 875.833,380.667 889.167,380.667 902.5,380C 903.025,379.308 903.692,378.808 904.5,378.5C 905.833,383.833 905.833,389.167 904.5,394.5C 902.808,384.651 897.142,381.151 887.5,384C 887,384.5 886.5,385 886,385.5C 885.333,399.833 885.333,414.167 886,428.5C 888.445,429.906 890.945,431.24 893.5,432.5C 886.167,432.5 878.833,432.5 871.5,432.5C 874.055,431.24 876.555,429.906 879,428.5C 879.667,414.167 879.667,399.833 879,385.5C 877.302,384.267 875.302,383.6 873,383.5C 868.869,382.9 865.536,384.234 863,387.5C 862.484,390.251 861.317,392.584 859.5,394.5C 859.167,394.167 858.833,393.833 858.5,393.5C 859.222,388.505 859.888,383.505 860.5,378.5 Z"/></g>
<g><path style="opacity:0.812" fill="#090a12" d="M 734.5,379.5 C 735.376,379.369 736.043,379.702 736.5,380.5C 744,396.167 751.5,411.833 759,427.5C 761.037,429.436 763.203,431.102 765.5,432.5C 758.833,432.5 752.167,432.5 745.5,432.5C 747.179,431.218 749.013,430.218 751,429.5C 748.452,421.716 745.285,414.049 741.5,406.5C 736.5,405.167 731.5,405.167 726.5,406.5C 722.673,413.483 720.173,420.816 719,428.5C 721.445,429.906 723.945,431.24 726.5,432.5C 719.863,432.547 713.196,432.547 706.5,432.5C 708.733,431.258 710.899,429.924 713,428.5C 720.66,412.345 727.826,396.011 734.5,379.5 Z M 732.5,390.5 C 733.376,390.369 734.043,390.702 734.5,391.5C 736.36,395.083 738.027,398.749 739.5,402.5C 735.541,403.66 731.541,403.827 727.5,403C 729.592,398.985 731.259,394.819 732.5,390.5 Z"/></g>
<g><path style="opacity:0.809" fill="#090a12" d="M 1150.5,379.5 C 1151.38,379.369 1152.04,379.702 1152.5,380.5C 1160,396.167 1167.5,411.833 1175,427.5C 1177.04,429.436 1179.2,431.102 1181.5,432.5C 1174.8,432.547 1168.14,432.547 1161.5,432.5C 1163.18,431.218 1165.01,430.218 1167,429.5C 1164.45,421.716 1161.28,414.049 1157.5,406.5C 1152.5,405.167 1147.5,405.167 1142.5,406.5C 1138.67,413.498 1136.17,420.832 1135,428.5C 1137.44,429.906 1139.94,431.24 1142.5,432.5C 1135.83,432.5 1129.17,432.5 1122.5,432.5C 1125.42,431.111 1127.92,429.111 1130,426.5C 1136.85,410.807 1143.68,395.141 1150.5,379.5 Z M 1148.5,390.5 C 1149.38,390.369 1150.04,390.702 1150.5,391.5C 1151.89,395.286 1153.56,398.952 1155.5,402.5C 1151.54,403.66 1147.54,403.827 1143.5,403C 1145.59,398.996 1147.25,394.829 1148.5,390.5 Z"/></g>
<g><path style="opacity:0.819" fill="#090a12" d="M 1318.5,379.5 C 1337.26,378.927 1347.59,387.927 1349.5,406.5C 1347.45,423.813 1337.62,433.146 1320,434.5C 1303.36,432.857 1294.52,423.69 1293.5,407C 1295.03,391.637 1303.36,382.471 1318.5,379.5 Z M 1315.5,382.5 C 1332.28,382.946 1341.28,391.613 1342.5,408.5C 1341.79,423.377 1334.13,430.877 1319.5,431C 1309.92,428.423 1304.09,422.257 1302,412.5C 1297.97,398.356 1302.47,388.356 1315.5,382.5 Z"/></g>
<g><path style="opacity:0.806" fill="#090a12" d="M 446.5,380.5 C 457.564,380.094 468.564,380.594 479.5,382C 497.029,389.908 501.863,402.741 494,420.5C 489.416,427.548 482.916,431.715 474.5,433C 465.077,433.149 455.744,432.982 446.5,432.5C 448.49,431.127 450.657,430.127 453,429.5C 453.667,414.5 453.667,399.5 453,384.5C 450.575,383.357 448.408,382.024 446.5,380.5 Z M 464.5,382.5 C 481.163,382.662 489.83,391.162 490.5,408C 489.863,422.46 482.363,430.293 468,431.5C 465.3,431.27 462.967,430.27 461,428.5C 460.333,413.833 460.333,399.167 461,384.5C 462.302,383.915 463.469,383.249 464.5,382.5 Z"/></g>
<g><path style="opacity:0.775" fill="#090a12" d="M 528.5,380.5 C 540.167,380.5 551.833,380.5 563.5,380.5C 563.824,384.555 563.491,388.555 562.5,392.5C 561.839,388.665 559.839,385.831 556.5,384C 552.5,383.333 548.5,383.333 544.5,384C 544,384.5 543.5,385 543,385.5C 542.5,391.825 542.334,398.158 542.5,404.5C 546.846,404.666 551.179,404.499 555.5,404C 557.436,402.638 558.769,400.805 559.5,398.5C 560.663,403.802 560.829,409.136 560,414.5C 559.04,411.935 557.54,409.769 555.5,408C 551.179,407.501 546.846,407.334 542.5,407.5C 542.334,414.508 542.5,421.508 543,428.5C 548.306,430.946 553.806,431.113 559.5,429C 562.138,426.222 564.138,423.056 565.5,419.5C 565.833,420.333 566.167,421.167 566.5,422C 565.877,425.481 565.377,428.981 565,432.5C 552.896,433.821 540.729,433.821 528.5,432.5C 530.632,431.402 532.798,430.402 535,429.5C 535.667,414.5 535.667,399.5 535,384.5C 532.575,383.357 530.408,382.024 528.5,380.5 Z"/></g>
<g><path style="opacity:0.814" fill="#090a12" d="M 596.5,380.5 C 603.532,380.17 610.532,380.503 617.5,381.5C 615.219,382.277 613.052,383.277 611,384.5C 610.333,399.167 610.333,413.833 611,428.5C 611.5,429 612,429.5 612.5,430C 618.585,430.861 624.585,430.527 630.5,429C 633.467,426.205 635.8,423.038 637.5,419.5C 637.833,419.667 638.167,419.833 638.5,420C 637.833,424.333 637.167,428.667 636.5,433C 623.012,433.979 609.679,433.646 596.5,432C 598.5,431.333 600.5,430.667 602.5,430C 603.191,428.933 603.691,427.766 604,426.5C 604.667,413.167 604.667,399.833 604,386.5C 603.535,385.069 602.701,383.903 601.5,383C 599.256,382.95 597.589,382.117 596.5,380.5 Z"/></g>
<g><path style="opacity:0.772" fill="#090a12" d="M 791.5,380.5 C 798.532,380.17 805.532,380.503 812.5,381.5C 810.219,382.277 808.052,383.277 806,384.5C 805.333,399.167 805.333,413.833 806,428.5C 806.5,429 807,429.5 807.5,430C 813.585,430.861 819.585,430.527 825.5,429C 828.64,426.555 830.64,423.388 831.5,419.5C 832.8,424.05 832.8,428.55 831.5,433C 818.154,433.833 804.821,433.666 791.5,432.5C 793.632,431.402 795.798,430.402 798,429.5C 798.667,414.5 798.667,399.5 798,384.5C 795.575,383.357 793.408,382.024 791.5,380.5 Z"/></g>
<g><path style="opacity:0.796" fill="#090a12" d="M 936.5,380.5 C 943.532,380.17 950.532,380.503 957.5,381.5C 955.083,382.072 952.916,383.072 951,384.5C 950.333,399.5 950.333,414.5 951,429.5C 953.202,430.402 955.368,431.402 957.5,432.5C 956.667,432.833 955.833,433.167 955,433.5C 948.786,432.666 942.619,432.333 936.5,432.5C 938.289,431.123 940.289,430.123 942.5,429.5C 943.666,414.511 943.833,399.511 943,384.5C 940.435,383.53 938.268,382.196 936.5,380.5 Z"/></g>
<g><path style="opacity:0.836" fill="#090a12" d="M 987.5,380.5 C 997.172,380.334 1006.84,380.5 1016.5,381C 1025.89,384.28 1029.06,390.78 1026,400.5C 1021.16,409.67 1013.66,413.003 1003.5,410.5C 1015.57,409.607 1020.74,403.273 1019,391.5C 1015.62,383.269 1009.96,380.935 1002,384.5C 1001.33,399.167 1001.33,413.833 1002,428.5C 1005.04,430.017 1008.2,431.351 1011.5,432.5C 1004.53,432.381 997.533,432.714 990.5,433.5C 989.263,433.444 988.263,432.944 987.5,432C 990.78,431.595 993.28,430.095 995,427.5C 995.667,413.833 995.667,400.167 995,386.5C 994.535,385.069 993.701,383.903 992.5,383C 990.256,382.95 988.589,382.117 987.5,380.5 Z"/></g>
<g><path style="opacity:0.756" fill="#090a12" d="M 1056.5,380.5 C 1063.53,380.17 1070.53,380.503 1077.5,381.5C 1075.08,382.072 1072.92,383.072 1071,384.5C 1070.33,399.167 1070.33,413.833 1071,428.5C 1071.5,429 1072,429.5 1072.5,430C 1078.59,430.861 1084.59,430.527 1090.5,429C 1093.64,426.555 1095.64,423.388 1096.5,419.5C 1097.8,424.05 1097.8,428.55 1096.5,433C 1083.15,433.833 1069.82,433.666 1056.5,432.5C 1058.63,431.402 1060.8,430.402 1063,429.5C 1063.67,414.5 1063.67,399.5 1063,384.5C 1060.57,383.357 1058.41,382.024 1056.5,380.5 Z"/></g>
<g><path style="opacity:0.793" fill="#090a12" d="M 1208.5,380.5 C 1212.51,380.334 1216.51,380.501 1220.5,381C 1231.67,394.833 1242.83,408.667 1254,422.5C 1254.67,410.5 1254.67,398.5 1254,386.5C 1252.72,384.269 1250.89,382.602 1248.5,381.5C 1253.83,380.167 1259.17,380.167 1264.5,381.5C 1261.63,382.34 1259.47,384.007 1258,386.5C 1257.83,402.51 1257.33,418.51 1256.5,434.5C 1243.44,419.392 1230.61,404.058 1218,388.5C 1217.33,401.167 1217.33,413.833 1218,426.5C 1219.42,429.296 1221.59,431.296 1224.5,432.5C 1219.17,432.5 1213.83,432.5 1208.5,432.5C 1210.22,431.08 1212.05,429.747 1214,428.5C 1214.83,413.822 1214.67,399.155 1213.5,384.5C 1211.14,383.846 1209.48,382.513 1208.5,380.5 Z"/></g>
</svg>
